<?xml version="1.0" encoding="utf-8"?>
<svg version="1.1" id="Layer_1" xmlns="http://www.w3.org/2000/svg" xmlns:xlink="http://www.w3.org/1999/xlink" x="0px" y="0px"
	 viewBox="0 0 720.6 149.5" style="enable-background:new 0 0 720.6 149.5;" xml:space="preserve">
<style type="text/css">
	.st0{fill:#FCD401;}
	.st1{fill:#FFFFFF;}
	.st2{font-family:'Montserrat';}
	.st3{font-size:29.5829px;}
	.st4{fill:none;stroke:#FFFFFF;stroke-width:3.06;}
	.st5{fill:#146DB1;}
</style>
<rect x="24.7" y="37.9" class="st0" width="672.4" height="110.1"/>
<text transform="matrix(1 0 0 1 250.679 25.1453)"><tspan x="0" y="0" class="st1 st2 st3">ALLSC</tspan><tspan x="93.9" y="0" class="st1 st2 st3">H</tspan><tspan x="117.6" y="0" class="st1 st2 st3">W</tspan><tspan x="148.5" y="0" class="st1 st2 st3">I</tspan><tspan x="157.7" y="0" class="st1 st2 st3">LE</tspan><tspan x="193.5" y="0" class="st1 st2 st3">R</tspan></text>
<g>
	<rect x="24.7" y="37.9" class="st4" width="672.4" height="110.1"/>
	<g>
		<path class="st5" d="M193.4,90.1c0,5.2,0,10.3,0,15.5c0,1.7,0.7,3.8-0.4,4.9c-1.1,1-3.2,0.2-4.9,0.3c-0.5,0-1,0-1.5,0
			c-1.4,0.2-1.6-0.5-1.6-1.7c0-10.7,0-21.4,0-32c0-1.3,0.5-1.6,1.7-1.7c6-0.2,6-0.2,9.7,4.7c4,5.4,8.1,10.8,12.2,16.3
			c0.9-0.7,0.5-1.5,0.5-2.3c0-5.4,0-10.8,0-16.2c0-2.5,0-2.5,2.6-2.5c1.4,0,2.8,0.1,4.2,0c1.4-0.1,1.7,0.5,1.7,1.7
			c0,10.7,0,21.4,0,32c0,1.3-0.4,1.7-1.7,1.7c-6.1,0.2-6.1,0.3-9.8-4.6c-4.1-5.4-8.1-10.9-12.2-16.3C193.8,90,193.6,90.1,193.4,90.1
			"/>
		<path class="st5" d="M472.3,93.2c0-5.2,0-10.4,0-15.6c0-2.2,0-2.2,2.1-2.2c7.9,0,15.8,0,23.7,0c1.5,0,2.3,0.3,2.1,1.9
			c-0.1,1.2-0.1,2.4,0,3.6c0.1,1.3-0.5,1.7-1.8,1.7c-4.8-0.1-9.6,0-14.4,0c-2.9,0-2.7-0.1-2.6,2.5c0.1,5.2-0.8,4.4,4.3,4.5
			c3.5,0,7,0,10.5,0c2,0,2,0,2.1,2.2c0.1,4.9,0.1,4.9-4.8,4.9c-3.4,0-6.8,0-10.2,0c-1.4,0-2.1,0.3-1.9,1.8c0.1,1.2,0.1,2.4,0,3.6
			c-0.1,1.4,0.6,1.7,1.8,1.7c5,0,10,0,15,0c2.5,0,2.5,0,2.6,2.6c0,4.5,0,4.5-4.6,4.5c-7,0-14,0-21,0c-3.1,0-2.8,0.2-2.8-2.7
			C472.3,103.2,472.3,98.2,472.3,93.2"/>
		<path class="st5" d="M178.7,87.2c0,2.6,0,5.2,0,7.8c-0.1,11.3-7.8,17.8-19.1,16.1c-6.1-0.9-10.7-3.8-12.7-9.9
			c-0.6-1.7-0.8-3.5-0.8-5.3c0-6.1,0-12.2,0-18.3c0-2.2,0-2.2,2.3-2.2c1.6,0,3.2,0.1,4.8,0c1.7-0.2,2,0.6,2,2.1
			c-0.1,5.6,0,11.2,0,16.8c0,1.1,0,2.2,0.2,3.3c0.7,4.1,3.4,6.3,7.5,6.1c3.8-0.1,6.5-2.5,6.6-6.7c0.2-6,0.1-12,0.1-18
			c0-3.6,0-3.7,3.7-3.6c1.7,0,3.8-0.7,4.9,0.3c1.1,1.1,0.3,3.2,0.4,4.9C178.8,82.8,178.7,85,178.7,87.2"/>
		<path class="st5" d="M255.9,80.6c-1.1,1.4-2.2,2.8-3.4,4.1c-1.4,1.7-1.4,1.7-3.2,0.5c-3-1.9-6.1-3-9.6-2.3
			c-5.8,1.1-9.3,6.6-8.2,12.3c1.2,5.9,6.4,9.4,12.2,8.3c0.7-0.1,1.4-0.3,2-0.6c2.2-0.8,2.2-0.8,2.2-3.2c0-1.8,0.1-3.6,0-5.4
			c0-1.2,0.5-1.6,1.6-1.5c2,0.2,4.4-0.8,5.8,0.4c1.3,1.1,0.4,3.6,0.4,5.4c0.1,2.2,0,4.4,0,6.6c0,1-0.3,1.7-1.2,2.2
			c-6.2,3.4-12.6,5.1-19.6,3c-8.6-2.6-13.6-10-12.9-19.2c0.6-8,7.4-14.8,15.9-15.8c6-0.7,11.5,0.4,16.5,3.8c0.3,0.2,0.6,0.5,0.9,0.8
			C255.7,80.1,255.8,80.3,255.9,80.6"/>
		<path class="st5" d="M507,98.7c2.8,2,5.5,3.6,8.6,4.5c1.6,0.4,3.1,0.7,4.7,0.6c2.3-0.1,3.7-1,4-2.4c0.3-1.5-0.6-2.8-2.8-3.7
			c-1.3-0.5-2.7-0.9-4-1.3c-2.2-0.7-4.4-1.2-6.5-2.3c-3.2-1.6-5.2-4-5.3-7.7c-0.2-4,1.4-7,4.7-9.1c2.6-1.7,5.6-2.2,8.6-2.3
			c4.6-0.1,8.9,0.9,13,2.9c1.3,0.6,1.9,1.3,1,2.7c-0.9,1.5-1.2,3.7-2.5,4.7c-1.5,1.1-3.1-1-4.8-1.5c-2.5-0.7-4.9-1.6-7.6-1.3
			c-1.3,0.1-2.4,0.5-2.8,1.8c-0.4,1.5,0.4,2.5,1.6,3.2c1.4,0.8,2.9,1.2,4.5,1.7c2.3,0.7,4.6,1.3,6.8,2.4c3.6,1.8,5.7,4.6,5.7,8.8
			c0,4.2-2,7.3-5.8,9.1c-3.8,1.8-7.8,2.2-12,1.5c-4.1-0.6-7.9-2.1-11.3-4.4c-1-0.7-1.2-1.4-0.6-2.5
			C505.2,102.3,506.1,100.6,507,98.7"/>
		<path class="st5" d="M44.7,98.6c2.8,2.1,5.7,3.7,8.9,4.6c1.7,0.5,3.3,0.7,5,0.5c2-0.2,3.2-1,3.4-2.4c0.3-1.5-0.5-2.8-2.5-3.6
			c-1.4-0.6-2.8-1-4.3-1.4c-2.2-0.7-4.4-1.2-6.5-2.3c-3.2-1.6-5.2-4-5.4-7.7c-0.2-4,1.4-7,4.7-9.1c2.8-1.8,6-2.3,9.2-2.3
			c4.2,0,8.3,0.9,12.1,2.8c2.1,1,2.1,1.1,1.1,3.1c-0.8,1.6-1.1,3.9-2.6,4.6c-1.4,0.7-3-1.1-4.6-1.6c-2.5-0.8-4.9-1.6-7.6-1.4
			c-1.3,0.1-2.4,0.4-2.8,1.8c-0.4,1.5,0.4,2.5,1.6,3.2c1.4,0.8,2.9,1.2,4.5,1.7c2.3,0.7,4.6,1.3,6.8,2.4c3.6,1.8,5.7,4.6,5.7,8.7
			c0,4.2-2,7.3-5.7,9.1c-4.4,2.2-9.1,2.2-13.8,1.3c-3.4-0.7-6.6-2.1-9.6-4.1c-1-0.7-1.3-1.3-0.7-2.5
			C42.9,102.4,43.7,100.6,44.7,98.6"/>
		<path class="st5" d="M600.2,100.8c1-1,1.1-2.2,1.5-3.3c2.4-6.8,4.8-13.5,7-20.3c0.5-1.4,1.1-1.9,2.5-1.8c2.3,0.1,4.6,0,6.9,0
			c0.5,0.9-0.1,1.6-0.3,2.2c-4,10.3-8.1,20.6-12.1,30.9c-1.1,2.7-0.8,2.3-3.4,2.3c-2.3,0-5.1,0.9-6.7-0.4c-1.5-1.2-1.8-3.9-2.6-5.9
			c-3.4-8.6-6.7-17.3-10-25.9c-0.4-0.9-0.9-1.8-0.9-3.2c2.8,0,5.7,0,8.5,0c1.2,0,1.1,1,1.4,1.7c2.1,6,4.2,12,6.3,18.1
			C598.9,97,599.5,98.9,600.2,100.8"/>
		<path class="st5" d="M442.2,75.4c8.4,0,16.5,0,24.6,0c1.2,0,1.5,0.3,1.6,1.5c0.3,5.7,0.4,5.7-5.3,5.7c-3.3,0-6.6,0.1-9.9,0
			c-1.5,0-2.3,0.3-2.1,1.9c0.1,1.3,0,2.6,0,3.9c0,2.3,0,2.3,2.3,2.4c3.9,0,7.8,0.1,11.7,0c1.4,0,2,0.4,1.9,1.9
			c-0.1,1.2-0.1,2.4,0,3.6c0.1,1.4-0.5,1.7-1.8,1.7c-3.7,0-7.4,0-11.1,0c-3.3,0-3-0.2-3,3.1c0,2.6-0.1,5.2,0,7.8
			c0.1,1.5-0.3,2.2-1.9,2.1c-1.8-0.1-3.6-0.1-5.4,0c-1.5,0.1-1.9-0.6-1.8-1.9c0.1-1.7,0-3.4,0-5.1c0-8.9,0-17.8,0-26.7
			C442,76.7,442.1,76.2,442.2,75.4"/>
		<path class="st5" d="M550.5,75.4c4.4,0,8.8,0,13.2,0c1.5,0,2.3,0.3,2.1,2c-0.2,1.7,0.7,3.8-0.4,4.9c-1.1,1.2-3.2,0.3-4.9,0.4
			c-1.8,0.2-4-0.8-5.2,0.5c-1,1.1-0.3,3.2-0.3,4.9c0,6.7,0,13.4,0,20.1c0,2.9,0.3,2.7-2.8,2.7c-1,0-2,0-3,0c-3.7,0-3.2,0.4-3.2-3.1
			c0-7.2,0-14.4,0-21.6c0-0.6-0.1-1.2,0-1.8c0.1-1.3-0.4-1.8-1.7-1.7c-2.4,0.1-4.8,0-7.2,0c-1.2,0-1.7-0.3-1.8-1.7
			c-0.2-5.6-0.3-5.6,5.3-5.6H550.5"/>
		<path class="st5" d="M396.8,75.5c9.4,0,18.8,0,28.2-0.1c1.5,0,1.9,0.5,1.8,1.9c-0.1,1.7,0.5,3.8-0.3,4.9c-0.9,1.3-3.1,0.4-4.8,0.5
			c-1.3,0.1-2.6,0.1-3.9,0c-1.3-0.1-1.7,0.5-1.7,1.7c0.1,4.5,0,9,0,13.5c0,3.8-0.1,7.6,0,11.4c0,1.4-0.6,1.6-1.8,1.6
			c-1.7-0.1-3.4,0-5.1,0c-2.2,0-2.2,0-2.2-2.4c0-7.5,0-15,0-22.5c0-0.6,0-1.2,0-1.8c0.1-1.2-0.4-1.6-1.6-1.5c-2.9,0-5.8-0.1-8.7-0.1
			C396.3,80.2,396.2,77.8,396.8,75.5"/>
		<path class="st5" d="M657.9,93c0-5.2,0-10.4,0-15.6c0-1.5,0.4-2.2,2-2c1.4,0.1,2.8,0,4.2,0c3.1,0,3-0.4,3,2.8c0,7.3,0,14.6,0,21.8
			c0,3.6-0.3,3.3,3.2,3.3c3.3,0,6.6,0.1,9.9,0c1.6,0,2.2,0.5,2,2.1c-0.2,1.7,0.7,3.7-0.3,4.9c-1,1.3-3.2,0.5-4.8,0.5
			c-5.7,0.1-11.4,0-17,0.1c-1.6,0-2-0.5-2-2C657.9,103.5,657.9,98.3,657.9,93"/>
		<path class="st5" d="M569.4,93.1c0-5.2,0-10.4,0-15.6c0-2.1,0-2.1,2.2-2.1c1.6,0,3.2,0,4.8,0c2,0,2.1,0.1,2.1,2.2c0,9,0,18,0,27
			c0,1.5,0,3,0,4.5c0.1,1.2-0.2,1.9-1.6,1.8c-2-0.1-4-0.1-6,0c-1.2,0-1.5-0.5-1.5-1.6C569.4,103.9,569.4,98.5,569.4,93.1"/>
		<path class="st5" d="M345.1,71.7c-2.2,0-4-1.8-4-4c0-2.3,1.7-3.9,4-3.9c2.3,0,4,1.6,4,3.9C349.1,70,347.3,71.7,345.1,71.7"/>
		<path class="st5" d="M354.9,63.8c2.3,0,4,1.6,4,3.9c0,2.2-1.8,4-4,4c-2.3,0-3.9-1.7-3.9-4C351,65.4,352.6,63.8,354.9,63.8"/>
		<path class="st5" d="M396.1,82.5c0-2.3,0-4.7,0-7c-8.3,0-16.6-0.1-24.9-0.1c-5.9,0-5.8,0-5.5,5.8c0.1,1.2,0.5,1.6,1.6,1.5
			c2.2,0,4.4,0,6.6,0c2.4,0,2.4,0,2.4,2.4c0,7.9,0,15.8,0,23.7c0,1.5,0.2,2.2,1.9,2.1c1.8-0.1,3.6-0.1,5.4,0c1.2,0,1.9-0.3,1.8-1.6
			c-0.1-0.7,0-1.4,0-2.1c0-7.5,0-15,0-22.5c0-1.6,0.5-2.1,2-2C390.3,82.7,393.2,82.8,396.1,82.5 M396.8,80.9
			c-0.2,0.5-0.4,1.1-0.7,1.6c0.2,0,0.5,0,0.7,0C396.7,82,396.8,81.5,396.8,80.9 M396.8,77.1c0,1.3,0,2.5,0,3.8
			C397.2,79.7,397.2,78.4,396.8,77.1 M396.8,77.1c0-0.6,0-1.1,0-1.7c-0.3,0-0.5,0-0.8,0.1C396.4,76.1,396.6,76.6,396.8,77.1"/>
		<path class="st5" d="M283.4,100c0,1.8-1.2,3.1-3.3,3.6c-1.7,0.4-3.4,0.3-5,0.3c-4.2,0-4.2,0-4.2-4.3c0-3.6,0-3.6,3.7-3.6
			c1.8,0,3.6,0,5.4,0.2C282.1,96.7,283.4,98.1,283.4,100 M282.2,85.6c0.1,2-0.9,3.3-3,3.8c-1.3,0.3-2.6,0.2-3.9,0.3
			c-4.6-0.1-4.6-0.1-4.6-4.6c0-0.5,0-1,0-1.5c0-0.9,0.4-1.3,1.2-1.2c2.3,0,4.6,0,6.9,0.1C281,82.7,282.1,83.8,282.2,85.6
			 M291.5,83.8c-0.2-3.5-2.3-5.6-5.3-7c-1.8-0.8-3.8-1.3-5.8-1.3c-5.7-0.1-11.4,0-17.1-0.1c-1.1,0-1.6,0.3-1.6,1.5
			c0,10.8,0,21.5,0,32.3c0,1.1,0.2,1.6,1.5,1.6c6.2-0.1,12.4,0,18.6-0.2c2.5-0.1,4.9-0.9,7-2.3c5.5-3.7,5.3-11.9-0.4-15.3
			c-0.6-0.4-1.4-0.4-2-1.3c0.3-0.2,0.6-0.3,0.8-0.4C290.2,89.8,291.7,87.2,291.5,83.8"/>
		<path class="st5" d="M319.6,87.7c0.2,3.4-1.4,5.5-4.9,6c-2.3,0.3-4.6,0.1-6.8,0.2c-0.9,0-1.2-0.6-1.2-1.3c0-1.5,0-3,0-4.8
			c0.2-1.5-0.8-3.7,0.5-4.8c1.1-1,3.2-0.2,4.9-0.3c0.7,0,1.4,0,2.1,0C317.6,82.8,319.5,84.6,319.6,87.7 M327.8,84.5
			c-1.1-5-4.6-7.5-9.3-8.5c-1.6-0.4-3.1-0.5-4.7-0.5c-4.6,0-9.2,0-13.8,0c-2.2,0-2.3,0-2.3,2.3c0,9.7,0,19.4,0,29.1
			c0,4.1,0,4.1,4,4.1c1.6,0,3.5,0.7,4.6-0.3c1.1-1.1,0.3-3,0.4-4.6c0.1-5.2,0-5.1,5.4-5c1.3,0,2,0.5,2.5,1.6
			c1.1,2.3,2.4,4.6,3.6,6.9c0.4,0.8,0.8,1.5,2,1.5c2.9-0.1,5.7,0,9.1,0c-2.2-3.5-4.2-6.6-6.1-9.6c-1.1-1.8-1.1-1.8,0.6-3.2
			C328.1,94.4,329,89.7,327.8,84.5"/>
		<path class="st5" d="M132.3,88.9c-0.2,2.5-1.5,4-3.9,4.6c-2.5,0.7-5.1,0.2-7.7,0.3c-0.9,0-1.2-0.5-1.2-1.3c0-1.5,0-3,0-4.8
			c0.2-1.4-0.8-3.7,0.4-4.8c1.2-1.1,3.4-0.3,5.2-0.3c0.6,0,1.2,0,1.8,0C130.8,82.8,132.7,85,132.3,88.9 M140.8,85.2
			c-0.6-4-2.9-6.7-6.5-8.3c-2.2-1-4.6-1.4-7-1.4c-4.9,0-9.8,0-14.7,0c-2.1,0-2.1,0-2.1,2.1c0,8.8,0,17.6,0,26.4
			c0,2.2-0.5,4.5,0.4,6.7c2.4,0.4,4.8,0.1,7.1,0.2c1.2,0.1,1.6-0.4,1.5-1.6c-0.1-2.2,0-4.4,0-6.6c0-1.2,0.3-1.9,1.6-1.8
			c1.2,0.1,2.4,0.1,3.6,0c1.4-0.1,2.1,0.6,2.7,1.8c1.1,2.2,2.3,4.4,3.5,6.6c0.4,0.7,0.6,1.5,1.6,1.5c3,0,6,0,9.5,0
			c-2.6-4.1-4.9-7.7-7.3-11.6C140.2,95.9,141.7,91,140.8,85.2"/>
		<path class="st5" d="M640,97.4h-10c1.7-4.2,3.3-8.3,5.1-12.9C636.8,89.1,638.4,93.1,640,97.4 M654.5,109.9
			c-4.6-11-9.3-22.1-13.9-33.1c-0.5-1.1-1.1-1.5-2.2-1.4c-1.7,0.1-3.4,0.2-5.1,0c-2.1-0.3-2.9,0.7-3.7,2.5
			c-4.3,10.2-8.7,20.3-13.1,30.5c-0.3,0.7-0.9,1.4-0.7,2.3c1.3,0.4,2.6,0.2,3.8,0.2c1.7,0,3.6,0.6,4.9-0.4c1.2-0.9,1.3-2.8,2-4.3
			c0.1-0.2,0.2-0.4,0.2-0.5c0.3-1,0.9-1.4,2-1.3c4.1,0,8.2,0.1,12.3,0c1.2,0,1.9,0.3,2.2,1.5c0.4,1.2,1,2.4,1.4,3.6
			c0.4,1.1,1,1.5,2.2,1.5c2.5-0.1,5,0,7.6,0C654.5,110.3,654.6,110.1,654.5,109.9"/>
		<path class="st5" d="M354.9,97.3h-10c1.6-4.1,3.2-8.1,5-12.8C351.7,89.1,353.2,93.1,354.9,97.3 M369.4,110.8c0-1.2-0.6-2.1-0.9-3
			c-3.6-8.7-7.2-17.3-10.9-25.9c-0.9-2.1-1.2-4.9-2.9-6.1c-1.9-1.3-4.6-0.2-7-0.5c-1.7-0.2-2.4,0.5-3.1,2c-4,9.5-8.1,18.9-12.2,28.3
			c-0.7,1.5-1.3,3.1-2.2,5.1c2.9,0,5.3-0.1,7.7,0c1.2,0,1.8-0.3,2.2-1.5c0.4-1.2,1-2.4,1.4-3.6c0.4-1.1,1-1.5,2.2-1.5
			c2.9,0.1,5.8,0,8.7,0c1.7,0,3.7-0.7,4.9,0.4c1.1,0.9,1.4,2.8,2,4.3c0.1,0.2,0.1,0.4,0.2,0.6c0.3,1.1,1,1.3,2,1.3
			C364.2,110.8,366.8,110.8,369.4,110.8"/>
		<path class="st5" d="M97.5,88c0,2.9-1.3,4.8-4.1,5.5c-2.3,0.6-4.6,0.2-6.9,0.3c-0.9,0-1.2-0.5-1.2-1.3c0-1.5,0-3,0-4.8
			c0.2-1.5-0.8-3.7,0.5-4.8c1.2-1,3.4-0.3,5.2-0.3c0.7,0,1.4,0,2.1,0.1C95.9,83.3,97.4,85.2,97.5,88 M97.4,76.1
			c-1.5-0.4-3.1-0.7-4.7-0.7c-4.8,0-9.6,0.1-14.4,0c-1.5,0-2.1,0.4-2,2c0.1,5.3,0,10.6,0,15.9c0,5.3,0,10.6,0,15.9
			c0,1.2,0.2,1.9,1.6,1.8c1.9-0.1,3.8-0.1,5.7,0c1.5,0.1,1.9-0.6,1.8-1.9c-0.1-2.1,0-4.2,0-6.3c0-1.3,0.4-1.8,1.7-1.7
			c2.8,0.1,5.6,0.1,8.4-0.3c5.4-0.8,9.2-4,10.2-9.1C107,84.3,104.9,78.3,97.4,76.1"/>
		<polyline class="st4" points="702.3,96.1 719.1,96.1 719.1,17.8 476.5,17.8 		"/>
		<polyline class="st4" points="18.3,96.1 1.5,96.1 1.5,17.8 244.1,17.8 		"/>
	</g>
</g>
</svg>
