<?xml version="1.0" encoding="utf-8"?>
<!-- Generator: Adobe Illustrator 21.1.0, SVG Export Plug-In . SVG Version: 6.00 Build 0)  -->
<svg version="1.1" id="Mic" xmlns="http://www.w3.org/2000/svg" xmlns:xlink="http://www.w3.org/1999/xlink" x="0px" y="0px"
	 viewBox="0 0 92.8 97.9" style="enable-background:new 0 0 92.8 97.9;" xml:space="preserve">
<style type="text/css">
	.st0{fill:#7797CA;}
</style>
<g>
	<path class="st0" d="M49.3,91v2.9c0,1.3-0.9,2.4-2.1,2.8c-0.2,0.1-0.5,0.1-0.8,0.1l15.7,0.1c0.3,0,0.5,0,0.8-0.1
		c1.2-0.3,2.1-1.4,2.1-2.8c0-1.6-1.3-2.9-2.9-2.9L49.3,91 M29.8,90.9c-1.2,0.3-2.1,1.4-2.1,2.8c0,1.6,1.3,2.9,2.9,2.9l15.7,0.1
		c-1.6,0-2.9-1.3-2.8-2.9v-2.9l-12.9-0.1C30.4,90.8,30.1,90.9,29.8,90.9"/>
	<path class="st0" d="M43.6,71.1l-0.2,19.8v2.9c0,1.6,1.3,2.9,2.8,2.9l0,0l0,0c0.3,0,0.5,0,0.8-0.1c1.2-0.3,2.1-1.4,2.1-2.8v-2.9
		l0.3-19.7c-0.9,0.1-1.8,0.1-2.7,0.1h-0.3C45.4,71.3,44.5,71.3,43.6,71.1"/>
	<path class="st0" d="M21.2,41.1c-1.2,0.4-2.1,1.5-2.1,2.8C19,51.2,21.8,58,26.9,63.2c4.4,4.5,10.2,7.3,16.4,8
		c0.9,0.1,1.8,0.2,2.7,0.2h0.3c0.9,0,1.8,0,2.7-0.1c1.6-0.1,3.2-0.4,4.8-0.9c4.4-1.2,8.4-3.5,11.7-6.8c5.2-5.1,8.1-11.9,8.1-19.1
		c0-1.6-1.3-2.9-2.9-2.9c-0.3,0-0.5,0-0.8,0.1c-1.2,0.3-2.1,1.4-2.1,2.8c0,5.7-2.3,11.1-6.4,15.1c-2.6,2.6-5.8,4.4-9.2,5.3
		c-1.9,0.5-3.9,0.8-5.9,0.8H46c-5.7,0-11.1-2.3-15-6.4c-4-4.1-6.2-9.5-6.1-15.2c0-1.6-1.3-2.9-2.9-2.9C21.7,41,21.5,41,21.2,41.1"/>
	<path class="st0" d="M42,1.5c-6.5,1.8-11.4,7.8-11.4,14.9v0.7l8.4,0.1v3.7l-8.4-0.1v3.7l8.4,0.1v3.7l-8.4-0.1V32l8.4,0.1v3.7
		l-8.4-0.1v3.7l8.4,0.1v3.7l-8.4-0.1V44c-0.1,8.6,6.9,15.7,15.5,15.8h0.3c1.5,0,2.9-0.2,4.3-0.6c6.5-1.8,11.4-7.8,11.4-14.9v-0.9
		l-8.4-0.1v-3.7l8.4,0.1V36l-8.4-0.1v-3.7l8.4,0.1v-3.7l-8.4-0.1v-3.7l8.4,0.1v-3.7l-8.4-0.1v-3.7l8.4,0.1v-0.7
		C62.2,8,55.3,1,46.6,0.9h-0.3C44.8,0.9,43.4,1.1,42,1.5"/>
</g>
</svg>
