<?xml version="1.0" encoding="utf-8"?>
<!-- Generator: Adobe Illustrator 21.1.0, SVG Export Plug-In . SVG Version: 6.00 Build 0)  -->
<svg version="1.1" id="Layer_1" xmlns="http://www.w3.org/2000/svg" xmlns:xlink="http://www.w3.org/1999/xlink" x="0px" y="0px"
	 viewBox="0 0 54.6 96" style="enable-background:new 0 0 54.6 96;" xml:space="preserve">
<style type="text/css">
	.st0{fill:#7797CA;}
</style>
<path class="st0" d="M29.8,90.1l0,2.9c0,1.3-0.9,2.4-2.1,2.8c-0.2,0.1-0.5,0.1-0.8,0.1L42.6,96c0.3,0,0.5,0,0.8-0.1
	c1.2-0.3,2.1-1.4,2.1-2.8c0-1.6-1.3-2.9-2.9-2.9L29.8,90.1 M10.3,90c-1.2,0.3-2.1,1.4-2.1,2.8c0,1.6,1.3,2.9,2.9,2.9l15.7,0.1
	c-1.6,0-2.9-1.3-2.8-2.9l0-2.9l-12.9-0.1C10.9,89.9,10.6,90,10.3,90"/>
<path class="st0" d="M24.2,70.2L24,90l0,2.9c0,1.6,1.3,2.9,2.8,2.9c0,0,0,0,0,0c0,0,0,0,0,0c0.3,0,0.5,0,0.8-0.1
	c1.2-0.3,2.1-1.4,2.1-2.8l0-2.9L30,70.3c-0.9,0.1-1.8,0.1-2.7,0.1l-0.3,0C26,70.4,25.1,70.3,24.2,70.2"/>
<path class="st0" d="M2.1,40.2C0.9,40.6,0,41.7,0,43c-0.1,7.3,2.7,14.1,7.8,19.3c4.4,4.5,10.2,7.3,16.4,8c0.9,0.1,1.8,0.2,2.7,0.2
	l0.3,0c0.9,0,1.8,0,2.7-0.1c1.6-0.1,3.2-0.4,4.8-0.9c4.4-1.2,8.4-3.5,11.7-6.8c5.2-5.1,8.1-11.9,8.1-19.1c0-1.6-1.3-2.9-2.9-2.9
	c-0.3,0-0.5,0-0.8,0.1c-1.2,0.3-2.1,1.4-2.1,2.8c0,5.7-2.3,11.1-6.4,15.1c-2.6,2.6-5.8,4.4-9.2,5.3c-1.9,0.5-3.9,0.8-5.9,0.8l-0.3,0
	c-5.7,0-11.1-2.3-15-6.4c-4-4.1-6.2-9.5-6.1-15.2c0-1.6-1.3-2.9-2.9-2.9C2.6,40.1,2.4,40.1,2.1,40.2"/>
<path class="st0" d="M23.2,0.6c-6.5,1.8-11.4,7.8-11.4,14.9l0,0.7l8.4,0.1l0,3.7l-8.4-0.1l0,3.7l8.4,0.1l0,3.7l-8.4-0.1l0,3.7
	l8.4,0.1l0,3.7l-8.4-0.1l0,3.7l8.4,0.1l0,3.7l-8.4-0.1l0,0.9c-0.1,8.6,6.9,15.7,15.5,15.8l0.3,0c1.5,0,2.9-0.2,4.3-0.6
	c6.5-1.8,11.4-7.8,11.4-14.9l0-0.9l-8.4-0.1l0-3.7l8.4,0.1l0-3.7l-8.4-0.1l0-3.7l8.4,0.1l0-3.7l-8.4-0.1l0-3.7l8.4,0.1l0-3.7
	l-8.4-0.1l0-3.7l8.4,0.1l0-0.7C43.4,7.1,36.5,0.1,27.8,0l-0.3,0C26,0,24.6,0.2,23.2,0.6"/>
</svg>
