<?xml version="1.0" encoding="utf-8"?>
<!-- Generator: Adobe Illustrator 21.1.0, SVG Export Plug-In . SVG Version: 6.00 Build 0)  -->
<svg version="1.1" id="Speaker" xmlns="http://www.w3.org/2000/svg" xmlns:xlink="http://www.w3.org/1999/xlink" x="0px" y="0px"
	 viewBox="0 0 92.8 97.9" style="enable-background:new 0 0 92.8 97.9;" xml:space="preserve">
<style type="text/css">
	.st0{fill:#7797CA;}
	.st1{clip-path:url(#SVGID_2_);fill:#7797CA;}
	.st2{clip-path:url(#SVGID_4_);fill:#7797CA;}
	.st3{clip-path:url(#SVGID_6_);fill:#7797CA;}
	.st4{clip-path:url(#SVGID_8_);fill:#7797CA;}
</style>
<g>
	<g>
		<g>
			<path class="st0" d="M38,1.2c-2.2,0.6-4.4,1.4-6.5,2.4v2.2l1.7-0.7c1.7-0.7,3.5-1.4,5.3-1.9c2.6-0.7,5.2-1.1,7.9-1.1
				c4.6,0,9.1,1.4,13.2,3.2l2.2,1L31.5,6v2.1l53.9,0.5c1.3,0,2.6,0.6,3.4,1.5c0.9,0.9,1.4,2.2,1.4,3.6l-0.7,77H89h0.5
				c0,1.4-0.6,2.7-1.4,3.6c-0.6,0.6-1.3,1.1-2.2,1.3c-0.4,0.1-0.8,0.2-1.3,0.2l-53.9-0.5v2.1l53.9,0.5c0.6,0,1.2-0.1,1.7-0.2
				c1.2-0.3,2.2-1,3-1.8c1.2-1.3,2-3.1,2-5.1l0.7-77c0-2-0.7-3.8-1.9-5.1c-1.2-1.3-2.9-2.1-4.7-2.1V6.1v0.5L65.9,6.3l-0.1-0.1
				C59.9,2.8,53.3,0.1,46.4,0C43.6,0,40.8,0.4,38,1.2"/>
		</g>
	</g>
	<g>
		<path class="st0" d="M31.3,36.8v0.5l54.4,0.5l-0.4,51.3c0,0.9-0.6,1.7-1.4,2c-0.2,0-0.3,0.1-0.5,0.1L31,90.7v0.5l52.4,0.5
			c0.2,0,0.4,0,0.6-0.1c0.4-0.1,0.8-0.3,1.1-0.7c0.4-0.5,0.7-1.1,0.7-1.8l0.5-51.8L31.3,36.8 M62.2,19.6v0.5c-0.2,0-0.4,0-0.6,0.1
			c-0.4,0.1-0.8,0.3-1.1,0.6c-0.4,0.5-0.7,1.1-0.7,1.8c0,0.7,0.3,1.4,0.7,1.8c0.4,0.5,1,0.8,1.7,0.8c0.2,0,0.4,0,0.6-0.1
			c0.4-0.1,0.8-0.3,1.1-0.6c0.4-0.5,0.7-1.1,0.7-1.8c0-0.7-0.3-1.4-0.7-1.8c-0.4-0.5-1-0.8-1.7-0.8L62.2,19.6 M53.5,19.6v0.5
			c-0.2,0-0.4,0-0.6,0.1c-0.4,0.1-0.8,0.3-1.1,0.6c-0.4,0.5-0.7,1.1-0.7,1.8c0,0.7,0.3,1.4,0.7,1.8c0.4,0.5,1,0.8,1.7,0.8
			c0.2,0,0.4,0,0.6-0.1c0.4-0.1,0.8-0.3,1.1-0.6c0.4-0.5,0.7-1.1,0.7-1.8c0-0.7-0.3-1.4-0.7-1.8c-0.4-0.5-1-0.8-1.7-0.8V19.6
			 M44.8,19.5V20c-0.2,0-0.4,0-0.6,0.1c-0.4,0.1-0.8,0.3-1.1,0.6c-0.4,0.5-0.7,1.1-0.7,1.8c0,0.7,0.3,1.4,0.7,1.8
			c0.4,0.5,1,0.8,1.7,0.8c0.2,0,0.4,0,0.6-0.1c0.4-0.1,0.8-0.3,1.1-0.6c0.4-0.5,0.7-1.1,0.7-1.8l0,0c0-0.7-0.3-1.4-0.7-1.8
			c-0.4-0.5-1-0.8-1.7-0.8V19.5 M36.1,19.4v0.5c-0.2,0-0.4,0-0.6,0.1c-0.4,0.1-0.8,0.3-1.1,0.6c-0.4,0.5-0.7,1.1-0.7,1.8
			c0,0.7,0.3,1.4,0.7,1.8c0.4,0.5,1,0.8,1.7,0.8c0.2,0,0.4,0,0.6-0.1c0.4-0.1,0.8-0.3,1.1-0.6c0.4-0.5,0.7-1.1,0.7-1.8
			c0-0.7-0.3-1.4-0.7-1.8c-0.4-0.5-1-0.8-1.7-0.8V19.4"/>
	</g>
	<g>
		<g>
			<g>
				<defs>
					<path id="SVGID_1_" d="M2.7,8.3c-1.2,1.3-2,3.1-2,5.1l0.6,76.9c0,2,0.7,3.8,1.9,5.1c1.2,1.3,2.9,2.1,4.7,2.1l24.2-0.2l0-2.1
						L8.1,95.5c-1.3,0-2.6-0.6-3.4-1.5c-0.9-0.9-1.4-2.2-1.4-3.6l-0.5-77c0-1.4,0.6-2.7,1.4-3.6c0.6-0.6,1.3-1.1,2.2-1.3
						c0.4-0.1,0.8-0.2,1.2-0.2l24.2-0.2l0-2.1l-0.5,0l0.5-0.2l0-2.2c-1.6,0.7-3.1,1.5-4.6,2.4l0,0L7.5,6.2c-0.6,0-1.2,0.1-1.8,0.2
						C4.6,6.8,3.5,7.4,2.7,8.3"/>
				</defs>
				<clipPath id="SVGID_2_">
					<use xlink:href="#SVGID_1_"  style="overflow:visible;"/>
				</clipPath>
				
					<rect x="-9.2" y="4.9" transform="matrix(1 -8.018462e-03 8.018462e-03 1 -0.4184 0.1448)" class="st1" width="54.1" height="94.7"/>
			</g>
		</g>
	</g>
	<g>
		<g>
			<path class="st0" d="M31.5,12.2v0.5l52.4,0.5c1.1,0,1.9,1,1.9,2.1l-0.1,16.9v0.5l-54.4-0.5v0.5l54.8,0.5l0.2-18
				c0-0.7-0.3-1.4-0.7-1.8c-0.4-0.5-1-0.8-1.7-0.8v-0.5v0.5L31.5,12.2"/>
		</g>
		<g>
			<g>
				<g>
					<defs>
						<path id="SVGID_3_" d="M7.6,12.9c-0.4,0.5-0.7,1.1-0.7,1.8l0,18l25.1-0.2l0-0.5L7.4,32.2l0-17.4c0-0.9,0.6-1.7,1.4-2
							c0.2,0,0.3-0.1,0.5-0.1l22.7-0.2l0-0.5L9.3,12.2c-0.2,0-0.4,0-0.6,0.1C8.2,12.4,7.9,12.6,7.6,12.9"/>
					</defs>
					<clipPath id="SVGID_4_">
						<use xlink:href="#SVGID_3_"  style="overflow:visible;"/>
					</clipPath>
					
						<rect x="4.6" y="9.6" transform="matrix(1 -8.018462e-03 8.018462e-03 1 -0.181 0.1571)" class="st2" width="29.8" height="26.1"/>
				</g>
			</g>
		</g>
	</g>
	<g>
		<g>
			<g>
				<defs>
					<path id="SVGID_5_" d="M22.1,25.3l-0.1-6.7l0-0.5l3.9,0l0.1,7.2L22.1,25.3z M21.6,25.8l4.8,0l-0.1-8.2l-4.8,0L21.6,25.8z
						 M13.4,25.3l-0.1-6.7l0-0.5l3.9,0l0.1,7.2L13.4,25.3z M13,25.8l4.8,0l-0.1-8.2l-4.8,0L13,25.8z"/>
				</defs>
				<clipPath id="SVGID_6_">
					<use xlink:href="#SVGID_5_"  style="overflow:visible;"/>
				</clipPath>
				
					<rect x="12.1" y="15.8" transform="matrix(1 -8.018462e-03 8.018462e-03 1 -0.1726 0.1586)" class="st3" width="15.2" height="11.6"/>
			</g>
		</g>
	</g>
	<g>
		<g>
			<g>
				<defs>
					<path id="SVGID_7_" d="M6.8,88.6c0,0.7,0.3,1.4,0.7,1.8c0.4,0.5,1,0.8,1.7,0.8L31.9,91l0-0.5L9.2,90.7c-0.5,0-1-0.2-1.4-0.6
						c-0.3-0.4-0.6-0.9-0.5-1.4L6.9,37.9l0-0.5l24.7-0.2l0-0.5L6.4,36.8L6.8,88.6z"/>
				</defs>
				<clipPath id="SVGID_8_">
					<use xlink:href="#SVGID_7_"  style="overflow:visible;"/>
				</clipPath>
				
					<rect x="0.1" y="34.2" transform="matrix(1 -8.018462e-03 8.018462e-03 1 -0.511 0.1576)" class="st4" width="38.6" height="59.2"/>
			</g>
		</g>
	</g>
</g>
</svg>
