<?xml version="1.0" encoding="utf-8"?>
<!-- Generator: Adobe Illustrator 21.1.0, SVG Export Plug-In . SVG Version: 6.00 Build 0)  -->
<svg version="1.1" id="Layer_1" xmlns="http://www.w3.org/2000/svg" xmlns:xlink="http://www.w3.org/1999/xlink" x="0px" y="0px"
	 viewBox="0 0 92.2 97.8" style="enable-background:new 0 0 92.2 97.8;" xml:space="preserve">
<style type="text/css">
	.st0{fill:#7797CA;}
	.st1{clip-path:url(#SVGID_2_);fill:#7797CA;}
	.st2{clip-path:url(#SVGID_2_);}
	.st3{fill:#FFE380;}
	.st4{font-family:'Montserrat-Bold';}
	.st5{font-size:229px;}
	.st6{letter-spacing:-11;}
	.st7{clip-path:url(#SVGID_4_);fill:#7797CA;}
	.st8{clip-path:url(#SVGID_4_);}
	.st9{clip-path:url(#SVGID_6_);fill:#7797CA;}
	.st10{clip-path:url(#SVGID_6_);}
	.st11{clip-path:url(#SVGID_8_);fill:#7797CA;}
	.st12{clip-path:url(#SVGID_8_);}
</style>
<g>
	<g>
		<path class="st0" d="M38.1,1.2c-2.2,0.6-4.4,1.4-6.5,2.4l0,2.2l1.7-0.7c1.7-0.7,3.5-1.4,5.3-1.9c2.6-0.7,5.2-1.1,7.9-1.1
			c4.6,0,9.1,1.4,13.2,3.2l2.2,1L31.6,6l0,2.1l53.9,0.5c1.3,0,2.6,0.6,3.4,1.5c0.9,0.9,1.4,2.2,1.4,3.6l-0.7,77l-0.5,0l0.5,0
			c0,1.4-0.6,2.7-1.4,3.6c-0.6,0.6-1.3,1.1-2.2,1.3c-0.4,0.1-0.8,0.2-1.3,0.2l-53.9-0.5l0,2.1l53.9,0.5c0.6,0,1.2-0.1,1.7-0.2
			c1.2-0.3,2.2-1,3-1.8c1.2-1.3,2-3.1,2-5.1l0.7-77c0-2-0.7-3.8-1.9-5.1c-1.2-1.3-2.9-2.1-4.7-2.1l0-0.5l0,0.5L66,6.3l-0.1-0.1
			C60,2.8,53.4,0.1,46.5,0C43.7,0,40.9,0.4,38.1,1.2"/>
	</g>
</g>
<g>
	<defs>
		<path id="SVGID_1_" d="M2.7,7.9c-1.2,1.3-2,3.1-2,5.1L0,89.9c0,2,0.7,3.8,1.9,5.1c1.2,1.3,2.9,2.1,4.7,2.1l24.2,0.2l0-2.1
			L6.7,95.1c-1.3,0-2.6-0.6-3.4-1.5c-0.9-0.9-1.4-2.2-1.4-3.6l0.7-77c0-1.4,0.6-2.7,1.4-3.6c0.6-0.6,1.3-1.1,2.2-1.3
			C6.6,8,7,7.9,7.4,7.9l24.2,0.2l0-2.1l-0.5,0l0.5-0.2l0-2.2c-1.6,0.7-3.1,1.5-4.6,2.4L27,6L7.5,5.8C6.9,5.8,6.3,5.9,5.7,6
			C4.6,6.4,3.5,7,2.7,7.9"/>
	</defs>
	<clipPath id="SVGID_2_">
		<use xlink:href="#SVGID_1_"  style="overflow:visible;"/>
	</clipPath>
	<rect x="-10" y="4.7" transform="matrix(0.9636 -0.2672 0.2672 0.9636 -13.2934 6.4431)" class="st1" width="54.1" height="94.7"/>
	<g class="st2">
		<text transform="matrix(1 8.730000e-03 -8.730000e-03 1 -255.084 133.9214)"><tspan x="0" y="0" class="st3 st4 st5 st6">1</tspan><tspan x="82.9" y="0" class="st3 st4 st5">6  </tspan></text>
	</g>
</g>
<g>
	<path class="st0" d="M31.6,12.2l0,0.5L84,13.2c1.1,0,1.9,1,1.9,2.1l-0.1,16.9l0,0.5l-54.4-0.5l0,0.5l54.8,0.5l0.2-18
		c0-0.7-0.3-1.4-0.7-1.8c-0.4-0.5-1-0.8-1.7-0.8l0-0.5l0,0.5L31.6,12.2"/>
</g>
<g>
	<defs>
		<path id="SVGID_3_" d="M7.2,12.7c-0.4,0.5-0.7,1.1-0.7,1.8l-0.2,18l25.1,0.2l0-0.5L6.7,32l0.2-17.4c0-0.9,0.6-1.7,1.4-2
			c0.2,0,0.3-0.1,0.5-0.1l22.7,0.2l0-0.5L8.9,12c-0.2,0-0.4,0-0.6,0.1C7.8,12.2,7.5,12.4,7.2,12.7"/>
	</defs>
	<clipPath id="SVGID_4_">
		<use xlink:href="#SVGID_3_"  style="overflow:visible;"/>
	</clipPath>
	<rect x="4.1" y="9.6" transform="matrix(0.9636 -0.2672 0.2672 0.9636 -5.3546 5.9037)" class="st7" width="29.8" height="26.1"/>
	<g class="st8">
		<text transform="matrix(1 8.730000e-03 -8.730000e-03 1 -255.084 133.9214)"><tspan x="0" y="0" class="st3 st4 st5 st6">1</tspan><tspan x="82.9" y="0" class="st3 st4 st5">6  </tspan></text>
	</g>
</g>
<g>
	<defs>
		<path id="SVGID_5_" d="M22.7,26l0.1-6.7l0-0.5l3.9,0L26.6,26L22.7,26z M22.2,26.5l4.8,0l0.1-8.2l-4.8,0L22.2,26.5z M14,25.9
			l0.1-6.7l0-0.5l3.9,0l-0.1,7.2L14,25.9z M13.6,26.4l4.8,0l0.1-8.2l-4.8,0L13.6,26.4z"/>
	</defs>
	<clipPath id="SVGID_6_">
		<use xlink:href="#SVGID_5_"  style="overflow:visible;"/>
	</clipPath>
	
		<rect x="12.7" y="16.5" transform="matrix(0.9636 -0.2672 0.2672 0.9636 -5.2364 6.2445)" class="st9" width="15.2" height="11.6"/>
	<g class="st10">
		<text transform="matrix(1 8.730000e-03 -8.730000e-03 1 -255.084 133.9214)"><tspan x="0" y="0" class="st3 st4 st5 st6">1</tspan><tspan x="82.9" y="0" class="st3 st4 st5">6  </tspan></text>
	</g>
</g>
<g>
	<path class="st0" d="M31.4,36.8l0,0.5l54.4,0.5l-0.4,51.3c0,0.9-0.6,1.7-1.4,2c-0.2,0-0.3,0.1-0.5,0.1l-52.4-0.5l0,0.5l52.4,0.5
		c0.2,0,0.4,0,0.6-0.1c0.4-0.1,0.8-0.3,1.1-0.7c0.4-0.5,0.7-1.1,0.7-1.8l0.5-51.8L31.4,36.8 M62.3,19.6l0,0.5c-0.2,0-0.4,0-0.6,0.1
		c-0.4,0.1-0.8,0.3-1.1,0.6c-0.4,0.5-0.7,1.1-0.7,1.8c0,0.7,0.3,1.4,0.7,1.8c0.4,0.5,1,0.8,1.7,0.8c0.2,0,0.4,0,0.6-0.1
		c0.4-0.1,0.8-0.3,1.1-0.6c0.4-0.5,0.7-1.1,0.7-1.8c0-0.7-0.3-1.4-0.7-1.8c-0.4-0.5-1-0.8-1.7-0.8L62.3,19.6 M53.6,19.6l0,0.5
		c-0.2,0-0.4,0-0.6,0.1c-0.4,0.1-0.8,0.3-1.1,0.6c-0.4,0.5-0.7,1.1-0.7,1.8c0,0.7,0.3,1.4,0.7,1.8c0.4,0.5,1,0.8,1.7,0.8
		c0.2,0,0.4,0,0.6-0.1c0.4-0.1,0.8-0.3,1.1-0.6c0.4-0.5,0.7-1.1,0.7-1.8c0-0.7-0.3-1.4-0.7-1.8c-0.4-0.5-1-0.8-1.7-0.8L53.6,19.6
		 M44.9,19.5l0,0.5c-0.2,0-0.4,0-0.6,0.1c-0.4,0.1-0.8,0.3-1.1,0.6c-0.4,0.5-0.7,1.1-0.7,1.8c0,0.7,0.3,1.4,0.7,1.8
		c0.4,0.5,1,0.8,1.7,0.8c0.2,0,0.4,0,0.6-0.1c0.4-0.1,0.8-0.3,1.1-0.6c0.4-0.5,0.7-1.1,0.7-1.8l0,0c0-0.7-0.3-1.4-0.7-1.8
		c-0.4-0.5-1-0.8-1.7-0.8L44.9,19.5 M36.2,19.4l0,0.5c-0.2,0-0.4,0-0.6,0.1c-0.4,0.1-0.8,0.3-1.1,0.6c-0.4,0.5-0.7,1.1-0.7,1.8
		c0,0.7,0.3,1.4,0.7,1.8c0.4,0.5,1,0.8,1.7,0.8c0.2,0,0.4,0,0.6-0.1c0.4-0.1,0.8-0.3,1.1-0.6c0.4-0.5,0.7-1.1,0.7-1.8
		c0-0.7-0.3-1.4-0.7-1.8c-0.4-0.5-1-0.8-1.7-0.8L36.2,19.4"/>
</g>
<g>
	<defs>
		<path id="SVGID_7_" d="M5.8,88.4c0,0.7,0.3,1.4,0.7,1.8c0.4,0.5,1,0.8,1.7,0.8l22.7,0.2l0-0.5L8.2,90.5c-0.5,0-1-0.2-1.4-0.6
			c-0.3-0.4-0.6-0.9-0.5-1.4l0.4-50.8l0-0.5l24.7,0.2l0-0.5L6.2,36.6L5.8,88.4z"/>
	</defs>
	<clipPath id="SVGID_8_">
		<use xlink:href="#SVGID_7_"  style="overflow:visible;"/>
	</clipPath>
	
		<rect x="-0.5" y="34.2" transform="matrix(0.9636 -0.2672 0.2672 0.9636 -16.3749 7.3512)" class="st11" width="38.6" height="59.2"/>
	<g class="st12">
		<text transform="matrix(1 8.730000e-03 -8.730000e-03 1 -255.084 133.9214)"><tspan x="0" y="0" class="st3 st4 st5 st6">1</tspan><tspan x="82.9" y="0" class="st3 st4 st5">6  </tspan></text>
	</g>
</g>
</svg>
