<?xml version="1.0" encoding="utf-8"?>
<!-- Generator: Adobe Illustrator 21.0.0, SVG Export Plug-In . SVG Version: 6.00 Build 0)  -->
<svg version="1.1" id="Layer_1" xmlns="http://www.w3.org/2000/svg" xmlns:xlink="http://www.w3.org/1999/xlink" x="0px" y="0px"
	 viewBox="0 0 92.2 97.8" style="enable-background:new 0 0 92.2 97.8;" xml:space="preserve">
<style type="text/css">
	.st0{fill:#7797CA;}
	.st1{clip-path:url(#SVGID_2_);fill:#7797CA;}
	.st2{clip-path:url(#SVGID_4_);fill:#7797CA;}
	.st3{clip-path:url(#SVGID_6_);fill:#7797CA;}
	.st4{clip-path:url(#SVGID_8_);fill:#7797CA;}
</style>
<g>
	<g>
		<path class="st0" d="M38.1,1.2c-2.2,0.6-4.4,1.4-6.5,2.4v2.2l1.7-0.7c1.7-0.7,3.5-1.4,5.3-1.9c2.6-0.7,5.2-1.1,7.9-1.1
			c4.6,0,9.1,1.4,13.2,3.2l2.2,1L31.6,6v2.1l53.9,0.5c1.3,0,2.6,0.6,3.4,1.5c0.9,0.9,1.4,2.2,1.4,3.6l-0.7,77h-0.5h0.5
			c0,1.4-0.6,2.7-1.4,3.6c-0.6,0.6-1.3,1.1-2.2,1.3c-0.4,0.1-0.8,0.2-1.3,0.2l-53.9-0.5v2.1l53.9,0.5c0.6,0,1.2-0.1,1.7-0.2
			c1.2-0.3,2.2-1,3-1.8c1.2-1.3,2-3.1,2-5.1l0.7-77c0-2-0.7-3.8-1.9-5.1c-1.2-1.3-2.9-2.1-4.7-2.1V6.1v0.5L66,6.3l-0.1-0.1
			C60,2.8,53.4,0.1,46.5,0C43.7,0,40.9,0.4,38.1,1.2"/>
	</g>
</g>
<g>
	<path class="st0" d="M31.4,36.8v0.5l54.4,0.5l-0.4,51.3c0,0.9-0.6,1.7-1.4,2c-0.2,0-0.3,0.1-0.5,0.1l-52.4-0.5v0.5l52.4,0.5
		c0.2,0,0.4,0,0.6-0.1c0.4-0.1,0.8-0.3,1.1-0.7c0.4-0.5,0.7-1.1,0.7-1.8l0.5-51.8L31.4,36.8 M62.3,19.6v0.5c-0.2,0-0.4,0-0.6,0.1
		c-0.4,0.1-0.8,0.3-1.1,0.6c-0.4,0.5-0.7,1.1-0.7,1.8c0,0.7,0.3,1.4,0.7,1.8c0.4,0.5,1,0.8,1.7,0.8c0.2,0,0.4,0,0.6-0.1
		c0.4-0.1,0.8-0.3,1.1-0.6c0.4-0.5,0.7-1.1,0.7-1.8c0-0.7-0.3-1.4-0.7-1.8c-0.4-0.5-1-0.8-1.7-0.8L62.3,19.6 M53.6,19.6v0.5
		c-0.2,0-0.4,0-0.6,0.1c-0.4,0.1-0.8,0.3-1.1,0.6c-0.4,0.5-0.7,1.1-0.7,1.8c0,0.7,0.3,1.4,0.7,1.8c0.4,0.5,1,0.8,1.7,0.8
		c0.2,0,0.4,0,0.6-0.1c0.4-0.1,0.8-0.3,1.1-0.6c0.4-0.5,0.7-1.1,0.7-1.8c0-0.7-0.3-1.4-0.7-1.8c-0.4-0.5-1-0.8-1.7-0.8V19.6
		 M44.9,19.5V20c-0.2,0-0.4,0-0.6,0.1c-0.4,0.1-0.8,0.3-1.1,0.6c-0.4,0.5-0.7,1.1-0.7,1.8c0,0.7,0.3,1.4,0.7,1.8
		c0.4,0.5,1,0.8,1.7,0.8c0.2,0,0.4,0,0.6-0.1c0.4-0.1,0.8-0.3,1.1-0.6c0.4-0.5,0.7-1.1,0.7-1.8l0,0c0-0.7-0.3-1.4-0.7-1.8
		c-0.4-0.5-1-0.8-1.7-0.8V19.5 M36.2,19.4v0.5c-0.2,0-0.4,0-0.6,0.1c-0.4,0.1-0.8,0.3-1.1,0.6c-0.4,0.5-0.7,1.1-0.7,1.8
		c0,0.7,0.3,1.4,0.7,1.8c0.4,0.5,1,0.8,1.7,0.8c0.2,0,0.4,0,0.6-0.1c0.4-0.1,0.8-0.3,1.1-0.6c0.4-0.5,0.7-1.1,0.7-1.8
		c0-0.7-0.3-1.4-0.7-1.8c-0.4-0.5-1-0.8-1.7-0.8V19.4"/>
</g>
<g>
	<g>
		<defs>
			<path id="SVGID_1_" d="M3.2,8.2c-1.2,1.3-2,3.1-2,5.1L1.2,90.2c0,2,0.7,3.8,1.9,5.1s2.9,2.1,4.7,2.1l24.2,0l0-2.1L7.9,95.4
				c-1.3,0-2.6-0.6-3.4-1.5c-0.9-0.9-1.4-2.2-1.4-3.6l0.1-77c0-1.4,0.6-2.7,1.4-3.6c0.6-0.6,1.3-1.1,2.2-1.3
				c0.4-0.1,0.8-0.2,1.2-0.2l24.2,0l0-2.1l-0.5,0l0.5-0.2l0-2.2c-1.6,0.7-3.1,1.5-4.6,2.4v0L8,6.1c-0.6,0-1.2,0.1-1.8,0.2
				C5.1,6.7,4,7.3,3.2,8.2"/>
		</defs>
		<clipPath id="SVGID_2_">
			<use xlink:href="#SVGID_1_"  style="overflow:visible;"/>
		</clipPath>
		
			<rect x="-9.1" y="4.9" transform="matrix(1 -8.018720e-03 8.018720e-03 1 -0.4183 0.1453)" class="st1" width="54.1" height="94.7"/>
	</g>
</g>
<g>
	<g>
		<path class="st0" d="M31.6,12.2v0.5L84,13.2c1.1,0,1.9,1,1.9,2.1l-0.1,16.9v0.5l-54.4-0.5v0.5l54.8,0.5l0.2-18
			c0-0.7-0.3-1.4-0.7-1.8c-0.4-0.5-1-0.8-1.7-0.8v-0.5v0.5L31.6,12.2"/>
	</g>
	<g>
		<g>
			<defs>
				<path id="SVGID_3_" d="M7.8,12.8c-0.4,0.5-0.7,1.1-0.7,1.8L7,32.6l25.1,0l0-0.5l-24.7,0l0.1-17.4c0-0.9,0.6-1.7,1.4-2
					c0.2,0,0.3-0.1,0.5-0.1l22.7,0l0-0.5l-22.6,0c-0.2,0-0.4,0-0.6,0.1C8.4,12.3,8.1,12.5,7.8,12.8"/>
			</defs>
			<clipPath id="SVGID_4_">
				<use xlink:href="#SVGID_3_"  style="overflow:visible;"/>
			</clipPath>
			
				<rect x="4.7" y="9.6" transform="matrix(1 -8.018720e-03 8.018720e-03 1 -0.1813 0.1582)" class="st2" width="29.8" height="26.1"/>
		</g>
	</g>
</g>
<g>
	<g>
		<defs>
			<path id="SVGID_5_" d="M22.2,25.3l0-6.7l0-0.5l3.9,0l0,7.2L22.2,25.3z M21.7,25.8l4.8,0l0-8.2l-4.8,0L21.7,25.8z M13.5,25.2
				l0-6.7l0-0.5l3.9,0l0,7.2L13.5,25.2z M13.1,25.7l4.8,0l0-8.2l-4.8,0L13.1,25.7z"/>
		</defs>
		<clipPath id="SVGID_6_">
			<use xlink:href="#SVGID_5_"  style="overflow:visible;"/>
		</clipPath>
		
			<rect x="12.2" y="15.8" transform="matrix(1 -8.018720e-03 8.018720e-03 1 -0.1725 0.1591)" class="st3" width="15.2" height="11.6"/>
	</g>
</g>
<g>
	<g>
		<defs>
			<path id="SVGID_7_" d="M6.7,88.5c0,0.7,0.3,1.4,0.7,1.8c0.4,0.5,1,0.8,1.7,0.8l22.7,0l0-0.5l-22.7,0c-0.5,0-1-0.2-1.4-0.6
				c-0.3-0.4-0.6-0.9-0.5-1.4l0-50.8l0-0.5l24.7,0l0-0.5L6.7,36.7L6.7,88.5z"/>
		</defs>
		<clipPath id="SVGID_8_">
			<use xlink:href="#SVGID_7_"  style="overflow:visible;"/>
		</clipPath>
		
			<rect x="0.2" y="34.2" transform="matrix(1 -8.018720e-03 8.018720e-03 1 -0.5113 0.1587)" class="st4" width="38.6" height="59.2"/>
	</g>
</g>
</svg>
