<?xml version="1.0" encoding="utf-8"?>
<!-- Generator: Adobe Illustrator 21.1.0, SVG Export Plug-In . SVG Version: 6.00 Build 0)  -->
<svg version="1.1" id="Layer_1" xmlns="http://www.w3.org/2000/svg" xmlns:xlink="http://www.w3.org/1999/xlink" x="0px" y="0px"
	 viewBox="0 0 135.7 136.6" style="enable-background:new 0 0 135.7 136.6;" xml:space="preserve">
<style type="text/css">
	.st0{clip-path:url(#SVGID_2_);fill:#7797CA;}
	.st1{fill:#7797CA;}
	.st2{clip-path:url(#SVGID_4_);fill:#7797CA;}
</style>
<g>
	<g>
		<defs>
			<path id="SVGID_1_" d="M102,135c0-0.1,0.1-0.1,0.1-0.2C102.1,134.8,102.1,134.9,102,135L102,135C101.9,135.1,101.9,135.1,102,135
				 M110.7,126.8c0.1,0,0.1-0.1,0.1-0.1C110.9,126.8,110.8,126.8,110.7,126.8C110.7,126.8,110.7,126.9,110.7,126.8
				C110.7,126.9,110.7,126.9,110.7,126.8 M95.6,129.2L95.6,129.2c0.1,0,0.1,0,0.2,0c0,0,0,0,0.1,0l0.1,0c-0.1,0.1-0.2,0.2-0.2,0.4
				C95.6,129.5,95.6,129.3,95.6,129.2 M101.7,57.4c-0.3-0.1-0.3-0.4-0.3-0.7l0.1-0.1c0.2-0.1,0.5,0.3,0.4,0.6l0,0
				C101.8,57.3,101.8,57.3,101.7,57.4C101.8,57.4,101.8,57.4,101.7,57.4L101.7,57.4 M98.2,56.8c0-0.4-0.1-0.9-0.1-1.3
				c0.5,0.1,0.5,0.8,0.6,1.4l-0.1,0C98.4,56.8,98.3,56.8,98.2,56.8 M98.2,54.9c0-0.2,0.1-0.3,0.2-0.4c0,0.1,0.1,0.1,0.1,0.2
				c0,0.1-0.1,0.1-0.1,0.1C98.3,54.9,98.3,54.9,98.2,54.9 M99.3,50.9c0.1,0,0.3,0,0.4,0.2c-0.3,0.2-0.8,0.5-0.7,0.9
				C98.4,51.8,98.8,50.9,99.3,50.9 M117.8,48c0-0.5,0.3-0.6,0.4-0.9c0.2,0.2,0.5,0,0.8,0.1c-0.1,0.4-0.7,0.6-0.7,1.1
				C118,48.2,117.8,48.1,117.8,48 M117.6,46c0-0.3,0.3-0.5,0.4-0.8c0.3,0,0.1,0.4,0.3,0.5l0.2,0c-0.1,0.3-0.2,0.4-0.5,0.6
				C117.9,46.1,117.7,46.2,117.6,46 M98.9,48.5L98.9,48.5c0,0.2-0.1,0.3-0.2,0.5C98.6,48.7,98.7,48.5,98.9,48.5 M117.8,43.6
				C117.8,43.6,117.9,43.6,117.8,43.6c0.2-0.1,0.5,0.1,0.6,0.3c0,0.2-0.1,0.3-0.2,0.4C118,44,117.8,43.8,117.8,43.6 M100.6,47.3
				c-0.1-0.2-0.2-0.5-0.1-0.8c0.4,0.1,0.6,0.3,0.7,0.6C101.1,47.1,100.9,47.2,100.6,47.3L100.6,47.3 M100.6,45.5L100.6,45.5
				L100.6,45.5C100.7,45.5,100.7,45.5,100.6,45.5C100.7,45.5,100.7,45.5,100.6,45.5 M100.8,45.2c-0.1,0-0.2-0.1-0.3-0.2
				c0.1-0.1,0.2-0.2,0.3-0.3c0,0,0,0,0.1,0c0,0.1,0.1,0.2,0.2,0.3l0,0c0,0-0.1,0-0.1,0.1C101,45.1,101,45.1,100.8,45.2L100.8,45.2
				 M113.9,38.2c0-0.1,0-0.2,0.1-0.2C114.1,38.1,114.1,38.2,113.9,38.2C114,38.2,114,38.2,113.9,38.2 M111.7,19.3
				c-0.2,0.7-0.3,1.4-0.9,1.4c-0.1,0-0.1,0-0.2,0c-0.6-0.6,0.2-1.9-0.8-2.3c-0.8,0.4-0.4,1.9-0.3,2.6c-0.3,0.6-0.5,1-0.7,1.4
				c0,0.5-0.2,0.9-0.2,1.4c-1.6,4.6-3.8,8.8-5,13.6c-0.4,0.6-0.5,1.4-0.6,2.3c-0.1,0.8,0,1.6-0.1,2.5l0,0c0,0-0.1,0-0.1,0.1
				c-0.1,0-0.2,0-0.4,0c-0.1,0-0.3,0-0.4,0c-0.1,0-0.2,0.1-0.3,0.3c0,0.3,0.1,0.7,0.2,0.9c0,0,0,0-0.1,0s-0.3-0.1-0.5-0.1
				c0,0.1,0,0.1,0,0.3c0.3,0.1,0.6,0.3,0.5,0.7c-0.2-0.1-0.4-0.1-0.6-0.1c-0.3,0.1-0.6,0.2-0.8,0.5c0.1,0.4,0,0.8,0.2,1.1l0,0
				c-0.7,0.1-0.5,1.2-0.2,1.5c-0.1,0.3-0.2,0.4-0.4,0.5c-0.2,0-0.4,0-0.6-0.1c-0.9,0.2-1.3,1.6-0.6,2.3c0.2,0,0.2,0.1,0.4,0
				c0.2-0.1,0.3-0.3,0.5-0.6l-0.1,0c-0.1,0-0.1,0.1-0.2,0.2c-0.1,0.1-0.1,0.1-0.2,0.2c0,0-0.1,0-0.2,0c-0.3-0.4,0.2-1.1,0.5-1.4
				c0.2,0.2,0.5,0.2,0.7,0.2c0.2-0.1,0.4-0.2,0.6-0.2c0.1,0.2,0.2,0.6,0.1,1c-0.5,0.2-0.9,0.3-1.2,0.8c-0.1,0-0.2,0-0.2,0
				c-0.5,0.1-0.8,0.4-1,1.1c0.1,0.6,0.5,1,0.7,1.5c0,0.1-0.1,0.2-0.3,0.3c-0.1,0-0.3,0-0.4,0c-0.2-0.3,0-0.8-0.3-1l0,0
				c0,0,0,0-0.1,0.1l0,0.1l0,0c-0.1,0.2,0.1,0.6-0.1,0.8c0.1,0.3,0.4,0.4,0.3,0.7c0.2,0.1,0.3,0.1,0.5,0.1c0.3-0.1,0.5-0.3,0.7-0.4
				c0.1,0.1,0.1,0.2,0.2,0.4c-0.1,0.1-0.2,0.1-0.3,0.2c-0.1,0-0.2,0-0.3,0.1c-0.1,0-0.2,0-0.3,0.1c-0.1,0-0.1,0-0.1,0.1
				c-0.3,0.3-0.5,0.8-0.8,1.1c0,0.4-0.3,0.7-0.3,1c0.2,0.4,0.5,0.7,0.6,1.2c0.2,0,0.4,0,0.6,0c0.3-0.1,0.6-0.1,0.7-0.4
				c0.2,0.1,0.4,0.3,0.3,0.7c-0.4,0.3-0.9,0.4-1.2,1c0,0.4,0,0.9,0.4,0.9c0.1-0.2-0.2-0.4-0.1-0.6c0.2-0.6,0.7-0.6,1.1-0.8
				c0.1-0.2,0.1-0.3,0.2-0.4c0.3,0.4-0.6,0.8-0.6,1.2c-0.1,0.6,0.1,1,0.4,1.3c0,0,0.1,0,0.1-0.1c0.1,0,0.1,0,0.2,0s0.1,0,0.2,0
				c0.2,0,0.3-0.1,0.2-0.4c-0.1,0-0.1,0-0.2,0l-0.1,0l-0.1,0c-0.1,0-0.1,0-0.2-0.1c0,0,0-0.2,0-0.3c0.2-0.3,0.5-0.4,0.7-0.8
				c0-0.2,0-0.3-0.1-0.3c0.1-0.4-0.2-0.8,0-1.1c0.4,0.1,0.3,0.6,0.6,0.8c-0.2,0.8,0,1.4,0.7,1.4l0.1,0c-0.1-0.3-0.4-0.5-0.4-0.8
				c0-0.2,0.1-0.3,0.3-0.3c0.1,0,0.1,0,0.2,0s0.2,0,0.2,0l0.1,0c0-0.2-0.2-0.2-0.3-0.3c0.1-0.3,0.2-0.5,0.3-0.8
				c0.2,0,0.2,0.2,0.3,0.2c0.1,0.1,0.1,0.3,0.2,0.4c-0.2,0.4-0.6,0.8-0.7,1.3c0.1,0.5,0.2,0.8,0.4,1l0,0l0,0l0,0l0.1,0
				c-0.1-0.3-0.3-0.7,0-1.2c0.1-0.2,0.3-0.3,0.4-0.3l0.1,0.2c0.5,0.7,0.9,1.1,1.1,1.8c0.3,5,3.1,8.3,5.2,12.3
				c0.8,0.7,1.8,1.3,2.1,2.3c-0.4,1.4-1.3,2.2-1.7,3.6c-0.6,2-1.3,3.7-1.7,6c0.2,5.8,2,10.6,3.1,15.9c-0.7,1-1.3,2.1-1.9,3.2
				c0.2,1.2-0.7,2.2-0.9,3.6c-2.1,1.2-3.7,3.2-5.3,5.1c-2.4,5.1-4,11.3-7.3,15.2c0,0.4,0,0.6,0.1,0.9c-0.9,0.6-0.9,1.9-1,3l0,0
				c-0.3,0.1-0.4,0.3-0.5,0.7c0,0.7,0.6,1.2,1.3,1.6c0.1,0.4,0.1,0.9,0.2,1.3c1.2,0.9,3.9,1.3,5.6,1c0.2-0.1,0.4-0.1,0.5-0.2
				c0.1-0.5,0.3-1,0.1-1.5c-0.4-0.6-1.3-1-1.8-1.6c-0.2-1.3-1-2.2-1.2-3.5c0.2-0.5,0.4-1.1,0.5-1.7c3.6-5.7,9-9.2,12.2-15.3
				c0.1,4.2,0.7,8.1,0.2,12.7c-0.2,0.4-0.6,0.7-0.6,1.2c-0.1,0-0.2,0-0.3,0c-0.4,0.1-0.6,0.3-0.9,0.4c-0.2,0.9-1.2,1.4-0.8,2.5
				c-0.1,0-0.1,0-0.2,0c-0.3,0.1-0.4,0.4-0.5,0.7c0.2,0.8,0.7,1.5,1.4,2c0.1,0.5,0.1,0.9,0.4,1.3c1.9,1.3,5,2.5,8.1,2.8
				c0.2-0.5-0.1-0.7-0.3-1c0.8-0.6,0-1.7-0.3-2.4c-1.3-0.3-1.3-1.2-1.6-2.1c0.6-0.8,0-1.7-0.4-2.2c-0.2-0.7,0-1.4,0-2.1
				c0.1-0.6-0.1-1.3,0-2c0.1-1.2,0.5-2.5,0.9-3.6c1.1-4.1,2.5-7.7,3.5-11.7c0-0.1,0-0.1,0.1-0.2l0.1,0l0.1,0c0.1,0,0.1-0.1,0.1-0.2
				c3.1-7.5,7.8-13.2,10-22c0.1-0.6,0.1-1.1,0.3-1.7c0-4.1-1.1-7.5-2.7-10.7c-0.7-1.7-1.9-3-2.9-4.4c-0.9-1.6-1.2-3.4-1.4-5.4
				c0.2-0.8,0.2-1.6,0.4-2.4c0.1-2.1-1.4-3.1-2.7-4.5c0-0.6-0.3-1.2-0.4-1.8c0.5-0.8,0.9-1.5,1.3-2.4c1.9-1.5,2.5-4.1,3.2-6.5
				c0.4-1.5,1.4-3.1,2.2-4.1c0.3-0.5,0.9-0.7,1.2-1.2c2.6-3.3,4.1-7.5,6.2-11.5c0-0.7-0.1-1.2,0.2-2c-1-1.4-1.7-2.9-3-4
				c-0.5-0.9-0.6-2-1.6-2.6c-0.1-0.5-0.1-1.1-0.6-1.5c-0.3,0-0.6-0.1-0.7-0.1l0,0c0.2,0.8,0.3,1.6,0.5,2.6c-1.1-0.4-1.2-2.4-2.8-2.2
				c1.6,2.9,3.3,5.9,5.1,8.7c-2.1,3.1-4.7,5.7-6.9,8.7c-1.3,1.3-1.6,3.8-2.6,5.5c-1,1.7-1.9,3.4-2.9,5.2c-0.7,0.9-1.7,1.7-2.4,2.4
				c0.1-0.3,0.3-0.5,0.4-1c-0.1-0.2-0.2-0.3-0.5-0.3c0.1-0.2,0.1-0.5,0.2-0.8c0.3,0,0.4,0.2,0.6,0.4c0,0.3-0.1,0.5-0.3,0.8l0,0
				c0.2,0,0.1,0.1,0.2,0.1c0.3-0.2,0.4-1,0.2-1.3c0.1,0.1,0.5,0.1,0.7,0.2c0.2-0.1,0.4-0.2,0.4-0.4c-0.1,0-0.1,0-0.2,0l-0.1,0
				l-0.1,0c-0.1,0-0.2,0-0.4-0.1c0-0.5,0.5-0.6,0.7-0.8c0-0.5-0.6-0.5-0.8-0.8c0.2-0.4,0.6-0.4,0.8-0.9c-0.1-0.2-0.3-0.3-0.5-0.4
				c-0.1-0.2,0-0.5-0.2-0.5c0-0.2,0.1-0.3,0-0.5c-0.1-0.5-0.4-0.7-0.7-1.1c-0.6-0.1-0.7-0.5-0.8-0.9c0-0.2,0-0.3,0-0.4
				c0-0.1-0.2-0.1-0.2-0.3c0.3-0.7,0.3-1.4-0.4-1.4c-0.1-0.4-0.2-0.8-0.8-1c-0.1-0.3-0.2-0.6-0.5-0.8c-0.2,0-0.3,0-0.5,0
				c-0.8-0.2-0.8-1-1.6-1.1c-0.1,0-0.1,0-0.1,0c-0.1,0-0.1,0-0.2,0.1c-0.1,0-0.1-0.2-0.2-0.2c-0.3,0.1-0.5,0.1-0.8,0.1
				c-0.2-0.1-0.3-0.4-0.5-0.5c-0.3,0-0.5,0.1-0.8,0c-0.1-0.1-0.2-0.2-0.3-0.2s-0.1,0.1-0.2,0.1s-0.2-0.1-0.3,0c0,0,0,0-0.1,0l0,0
				l-0.1,0.1c0,0.1,0,0.1-0.1,0.1l0,0l0,0c0,0-0.1,0-0.2,0s-0.2,0-0.3,0c0,0,0,0-0.1,0s-0.1,0.3-0.3,0.4c-0.1,0-0.2,0-0.3,0.1
				c1.3-3.5,1.7-8,3.1-11.5c1.5-0.6,3-1,4.2-1.9c0.8-1.1,2-1.9,2.7-3.2c-0.4-0.2-0.8-0.5-1.3-0.6c-1,0.4-1.6,1.4-2.8,1.6
				c-0.1,0-0.1,0-0.2,0c0.4-0.8,1.4-1.5,1.3-2.3c-0.2-0.1-0.4-0.1-0.6-0.2c-0.4,0.1-0.7,0.6-1,0.9c-0.3,0.4-0.8,0.7-1.3,0.9
				c-0.1,0-0.2,0.1-0.4,0c0.1-0.9,0.9-2.3,0.4-3c0,0,0,0-0.1,0C112,17.9,111.9,18.6,111.7,19.3"/>
		</defs>
		<clipPath id="SVGID_2_">
			<use xlink:href="#SVGID_1_"  style="overflow:visible;"/>
		</clipPath>
		<path class="st0" d="M65.5-44.9L182.6-34l-21.8,233.6L43.7,188.7L65.5-44.9z"/>
	</g>
</g>
<g>
	<path class="st1" d="M70.6,110.9v-0.2c0-0.3-0.3-0.4-0.3-0.7c0.1-5.1,3-10,1-14.6c1.1-2.7,0.2-6.7,0.7-9.9l0.1-0.1
		c0.1,0.1,0.3,0.2,0.5,0.2c1.1,5.2-0.8,11.6,0,16.8c-1.2,2.2-2,5.1-2,8.3L70.6,110.9"/>
	<polyline class="st1" points="68.4,51.6 68.4,51.6 68.4,51.6 68.4,51.6 	"/>
	<path class="st1" d="M67.6,52.3c0-0.4-0.3-0.5-0.3-0.8C67.6,51.5,67.8,52,67.6,52.3"/>
	<path class="st1" d="M67.3,52.1C67,52,67,51.6,66.8,51.4c-0.2-0.1-0.3-0.2-0.5-0.4c0-0.2-0.2-0.4-0.1-0.6
		C66.5,51.1,67.1,51.4,67.3,52.1"/>
	<path class="st1" d="M65.9,50.4c-0.1-0.3-0.1-0.7-0.1-1c0.2-0.1,0.3-0.3,0.4-0.4C66,49.4,65.9,50,65.9,50.4"/>
	<path class="st1" d="M68.2,51c-0.4-0.2-0.7-0.3-1-0.7c-0.5-1.2-0.1-2.1,0.5-2.9C67.9,48.5,68,49.8,68.2,51"/>
	<path class="st1" d="M86,38.8c-0.1-0.2-0.2-0.3-0.1-0.3L86,38.8"/>
	<path class="st1" d="M85.8,38.3C85.7,38.3,85.7,38.2,85.8,38.3C85.7,38.2,85.7,38.2,85.8,38.3"/>
	<path class="st1" d="M85.4,41.4c-0.3-0.1-0.4-0.4-0.6-0.5c0-0.1,0.1-0.1,0.1-0.2c-0.3-0.6-0.8-1.1-1.2-1.6c0.1-0.3,0.3-0.6,0.4-0.8
		C84.7,39.1,85.3,40.1,85.4,41.4"/>
	<path class="st1" d="M82.4,30.4c-0.1-0.4-0.1-0.8-0.3-1.2v-0.1c0.1,0.3,0.3,0.6,0.4,0.9C82.6,30.2,82.5,30.3,82.4,30.4"/>
	<path class="st1" d="M82.1,30.5c-0.2-0.5-0.5-1.2-0.5-1.7C81.9,29.3,82.2,30,82.1,30.5"/>
	<path class="st1" d="M66.3,33.9c-0.2-0.1-0.5-0.3-0.7-0.4h0.1c0.2-0.2,0.5-0.3,0.7-0.6C66.4,33.2,66.3,33.5,66.3,33.9"/>
	<polyline class="st1" points="66.2,32.3 66.3,32.2 66.2,32.3 	"/>
	<path class="st1" d="M65.6,32c0.3-0.1,0.6-0.3,0.8-0.5c-0.1,0.3-0.3,0.4-0.5,0.7c-0.2,0.2-0.6,0.3-0.6,0.6c0.1,0,0.1,0,0.1,0h0.1
		h0.1h0.1c-0.1,0.2-0.3,0.4-0.5,0.5l-0.1-0.1c-0.1-0.1-0.2-0.2-0.4-0.3c0.1-0.3,0.2-0.6,0.3-0.9C65.2,32.1,65.4,32.1,65.6,32"/>
	<path class="st1" d="M64.1,32c0.1,0,0.1,0,0.2-0.1c0.1,0.2,0.2,0.4,0.2,0.6c-0.2-0.2-0.3-0.3-0.5-0.5C64.1,32.1,64.1,32.1,64.1,32"
		/>
	<path class="st1" d="M65.3,30.5L65.3,30.5c0-0.1,0.1-0.3,0.2-0.3C65.5,30.3,65.4,30.5,65.3,30.5"/>
	<path class="st1" d="M65.3,31.5c0.4-0.6,0.8-1.2,1.2-1.7C66.3,30.4,66,31.2,65.3,31.5"/>
	<path class="st1" d="M65.7,29.9L65.7,29.9C65.8,29.8,65.8,29.8,65.7,29.9C65.8,29.8,65.8,29.8,65.7,29.9L65.7,29.9"/>
	<path class="st1" d="M65,31.3c0.4-0.6,0.9-1,1.1-1.7c0.2-0.1,0.3-0.4,0.5-0.5h0.1C66.1,29.9,65.7,30.8,65,31.3"/>
	<path class="st1" d="M44.3,8.1c-0.3-0.1-1.1-0.5-1-0.5l0,0C43.7,7.6,44.3,7.9,44.3,8.1"/>
	<path class="st1" d="M45.8,3.1c-0.4,1.3,1.1,2.5,1.5,3.9c-0.1,0-0.2,0.1-0.3,0.1c-0.2,0.1-0.4,0.1-0.6,0.1c-0.2,0-0.4,0.1-0.6,0.1
		c-0.1,0-0.2,0.1-0.3,0.1c-0.5-0.6-1.7-0.8-2.7-0.7c0.1,0.2,0,0.7,0.3,0.7l0,0c-0.3,0.1-0.6-0.3-1.2-0.3c0,1.3,1.4,1.2,2,1.9
		c0.6,0.5,1.1,1.2,1.7,1.8c0.1,0.1,0.2,0.3,0.3,0.4c0.5,1,1.2,1.7,1.9,2.6c0.3,0,0.5,0.2,0.8,0.3c2.7,4.1,3.8,9.7,7,13.3
		c0.1,0.1,0.2,0.3,0.3,0.4c0.9,2.2,2.6,3.6,3.4,5.9c0.8,2,2.3,3.4,3.6,4.9c-0.1,0.1-0.5,0.1-0.5,0.4c-0.1,0-0.1,0-0.2,0
		c-0.3,0.1-0.6,0.2-0.8,0.4c0.1,0.1,0.3,0.1,0.4,0c0.1,0,0.2,0,0.2-0.1c0.1,0,0.2-0.1,0.2-0.1l0,0c0.3-0.1,0.7-0.2,1-0.2h0.1
		c0.1,0.2,0.2,0.3,0.3,0.5c-0.1,0-0.3,0.1-0.4,0.1c-0.5,0.4-0.7,1.4-0.5,2.3c0.2-0.2,0-0.7,0.2-1c0.3-0.3,0.4-0.7,0.8-1
		c0,0.3-0.4,0.5-0.3,1c0.3-0.2,0.5-0.4,0.7-0.6c0.1,0.1,0.1,0.3,0.2,0.4c-0.2,0.4-0.3,0.9-0.2,1.6c-0.1,0.4-0.6,0.5-0.7,1
		c0.1,0,0.2,0,0.2,0c0.2,0,0.3-0.2,0.4-0.2c0.1,0.3,0.1,0.7,0.2,0.9c-0.2,0.6-0.7,1-0.7,1.6c0.1,0,0.1,0,0.1,0
		c0.1,0,0.2-0.1,0.3-0.1c0.2,0.2,0,0.8,0.2,1c-0.8,1-1.4,2.5-1,4.4c0.2,0.3,0.2,0.8,0.4,0.9c0.1,0,0.1-0.2,0.1-0.4
		c0.2,0,0.2,0.3,0.4,0.3c0-0.4-0.5-0.8-0.2-1.3c0.2,0.3,0.3,0.7,0.6,0.9c0.4,1.4-0.1,2.7-1,3.2c-0.2,0-0.2-0.1-0.4-0.1
		c-0.1,0.1,0.2,0.2,0.3,0.3c0,0.1-0.2,0.1-0.2,0.3c0.1,0.1,0.2,0.1,0.3,0c0.8-0.6,1.4-1.3,1.7-2.4c0-0.1,0-0.3,0-0.4
		c-0.1-1.1-0.5-1.6-0.7-2.5c0.2-0.2,0.5-0.2,0.7-0.3c0.1,0.1,0.1,0.3,0.1,0.5c0.2,0.8,0.5,1.3,0.9,1.9c0.2,0.4,0.3,0.9,0.1,1.3
		c-0.1,0.3-0.2,0.6-0.4,0.9l0,0c0,0-0.1,0-0.1,0.1h-0.1l0,0l0,0c0,0,0,0-0.1,0h-0.1c0,0-0.1,0-0.1,0.1l0,0c0.1,0.1,0.3,0.1,0.4,0
		h0.1h0.1H66c0.7-0.6,1.3-1.2,1.8-2c0-0.3-0.1-0.4-0.1-0.6c0.2,0,0.3,0.1,0.5,0.2c0.1,0.3,0.2,0.7,0.3,1.1c0,0.3,0.1,0.6,0.3,0.8
		c0.6,0.9,1.3,1.7,1.5,2.8c0,0.2,0,0.4,0,0.5c-0.1,1,0.1,1.7-0.1,2.4c-0.2,0.8-0.9,1.2-1.2,1.8c-0.1,0.2-0.3,0.4-0.5,0.5
		c-2,1.4-3.9,3-5,5.4c-1.6,3.4-1.3,7.9-1.6,12.7c0,0.6,0.3,1.3,0.9,1.5c0,0,0,0,0,0c0.5,0.2,0.9,0.6,1,1.1c0.8,3.7,1.4,7.5,2,11.4
		c0,0.3,0,0.6-0.1,0.9c-2,5,1,10,1.7,14.7c-0.1,0.4-0.6,0.6-0.8,1c-0.7,1.2-0.6,2.7-0.7,4.5c-0.1,2-0.7,4.3-0.2,5.8
		c0.1,0.1,0.1,0.3,0.2,0.4c0.6,0.8,1.5,1.5,2.8,1.8c0.8,0.2,1.4,0.9,1.3,1.7c0,0.1,0,0.3,0,0.4c0.1,0.4,0.1,0.8-0.1,1.1
		c-0.4,0.7-0.5,1.6-0.5,2.7c0,0.1,0,0.3-0.1,0.4c-0.4,1.4-1.2,2.6-1.3,4.2c-0.1,0.7,0.4,1.3,1,1.6c1.3,0.5,3,0.4,4.5,0
		c0.9-0.2,1.7-0.6,2.1-1.1c0-0.1,0-0.2,0.1-0.2l0,0c-0.2-1.7-0.8-3-1.2-4.3c0-0.1-0.1-0.3-0.1-0.4c0-1.2-0.5-2.2-1.1-3.1
		c0.1-0.4,0.3-0.6,0.3-1.1c-0.7-2,0.3-3.6,0.9-5.5c0.4-1.3,0.7-2.6,1.1-3.8c1.3-4,2.8-7.8,1.8-12.8c0-0.2,0-0.5,0-0.7
		c1.3-5.3,2.6-10.4,4-15.5h0.1c0.3-0.1,0.5-0.4,0.8-0.5c0.5-0.1,0.3,0.4,0.6,0.3h0.1c0.7-0.4,0.5-1.4,0.5-2.2c0.1-2.2,0-3.9-0.2-5.9
		c-0.1-1.1-0.4-2.2-0.4-3.2c0-1.8,1.3-3.3,1.1-5.2c0-0.1,0.1-0.2,0.2-0.2h0.1h0.1c0.1,0,0.2-0.1,0.2-0.2c0-0.7,0.1-1.1,0.3-1.5
		c0.3-1.9,0-3.7-0.1-5.4c-0.3-3.2,0.2-6.6,0-10.1c0.1-0.8,0.6-1.2,0.7-1.9c0.3-2.6-1.1-4.4-2.2-6.1v-0.2c0.2-0.5,0.3-1,0.4-1.6
		c0-0.1,0-0.2,0-0.3c0-0.4-0.1-0.6-0.2-1c-0.1-0.3-0.3-0.7-0.2-1c0.9,0.7,1.3,2.1,2.7,2.2l0,0c0.1,0,0-0.1,0.1-0.2
		c0.4,0,0.4,0.1,1,0v-0.1l0,0v0.1v-0.1c-0.1,0-0.1,0-0.2,0l0,0c-0.1-0.1-0.3,0-0.4-0.1c-0.3,0-0.5-0.1-0.7-0.2
		c-0.2-1.5-0.6-3.4-1.4-4.6v-0.1c0.6,0.3,1,1,1.4,1.7c0.1,0,0.1,0.1,0.3,0.1v-0.1c0,0,0.1,0.1,0.1,0c0-0.3-0.2-0.5-0.3-0.7
		c-0.5-0.5-0.9-1-1.3-1.4l0.1-0.2c1.9-2.8,2.8-6.9,4.3-10.1c0.1-0.1,0.1-0.2,0.2-0.3c0.4-0.5,0.8-1,1.1-1.6c0.2-0.2,0.2-0.5,0.2-0.8
		l0.1-8.5c-0.3,0.5-0.6,0.9-1,1.4c0,0-0.1,0.1-0.1,0.1c-1.4,2.1-2.8,4.3-3.6,7.1c-0.1,0.2-0.1,0.3-0.2,0.5c-1.2,1.6-2.1,3.5-3,5.4
		v-0.1c-0.2-0.5-0.3-0.9-0.5-1.3c0.3,0.1,0.7,0.4,1,0.3h0.1c-0.2-0.2-0.5-0.2-0.7-0.3c-0.8-0.5-1.2-1.5-1.8-2.3
		c-0.6-0.8-1.2-1.5-2-2.1c0,0,0.1,0,0.1-0.1c0.1,0,0.1,0,0.2,0s0.1,0,0.2,0s0.1-0.1,0.2-0.1c0-0.2-0.2-0.2-0.3-0.3
		c-0.4,0-0.7-0.1-1-0.3c-0.2-0.1-0.3-0.3-0.5-0.5c-0.3-0.3-0.7-0.5-0.8-0.9c-0.5-0.3-0.9-0.6-1.6-0.6h-0.1c-0.3,0.1-0.5,0.2-0.7,0.4
		c-0.2,0-0.5-0.1-0.6-0.1H74l0,0c-0.7,0-1.3,0-1.8,0.1s-0.9,0.4-1.2,0.7l-0.1,0.4c-0.8,0.8-1.3,2-1.6,3.3c-0.1,0.2-0.2,0.4-0.2,0.6
		c-0.2,0.2-0.4,0.4-0.5,0.7c-0.1,0.1-0.2,0.3-0.3,0.4c-0.3,0.3-0.8,0.5-1.1,0.8c-0.1,0.1-0.1,0.1-0.2,0.2l-1,1
		c-0.1,0.1-0.1,0.2-0.2,0.3c-0.3,0.4-0.6,0.8-0.8,1.3c-0.2,0.2-0.4,0.4-0.7,0.6c-0.1,0.1-0.3,0.2-0.4,0.2l0,0
		c-1-1.1-1.8-2.3-2.8-3.3c-1.5-1.4-1.4-4.3-2.6-5.9c-2.3-3.2-4.8-6.2-6.7-9.8c-0.2-0.3-0.2-0.7-0.2-1c0.1-0.4,0-0.7,0-1.1
		c-0.1-0.4-0.3-0.8-0.7-1.1c-0.1-0.1-0.2-0.1-0.3-0.2c-0.3-0.2-0.5-0.4-0.6-0.6c-0.6-1.2-1.5-2.2-2-3.4c-0.1-0.2-0.2-0.4-0.4-0.6
		C47,4.4,46.9,3.3,45.8,3.1"/>
</g>
<g>
	<g>
		<defs>
			<path id="SVGID_3_" d="M95,5.5c-1.2-0.7,0.7-2.8-1.1-3.2c-0.4,1.4-0.7,2.4-0.7,3.7s0.9,2.5,0.8,3.6c0,1.3-1.2,2.9-1.8,3.9
				c-0.4,0.7-0.9,1.3-1.3,1.8l-0.6,8.9c2.6-3.8,4.3-8.6,6.7-12.4c1.1-1.1,2.2-2.2,3.1-3.5c1-1.2,2.5-1.8,3.2-3.3
				c-0.2,0-0.3,0-0.5,0.1c-1.2,0.2-1.7,1.4-2.7,1.9c-0.1-1.3,1.5-3.1,0.3-4.3c-0.8,0.7-0.6,2.3-1.4,3.1c-0.1-0.9,1.1-1.8,0.7-3
				c-0.1,0-0.2,0-0.3,0c-0.8,0.2-0.9,1.7-1.5,2.2c-0.6-0.4,0-1.3,0.2-1.8c0-1.2,0.9-2,0.5-3.1C96.5,0.7,97.3,4.9,95,5.5"/>
		</defs>
		<clipPath id="SVGID_4_">
			<use xlink:href="#SVGID_3_"  style="overflow:visible;"/>
		</clipPath>
		<path class="st2" d="M88.3,0.1l16.9,0.9l-1.2,22L87,22.1L88.3,0.1z"/>
	</g>
</g>
<g>
	<path class="st1" d="M28.9,43.8c0.1-0.2,0.4-0.4,0.6-0.6l0.1,0.1C29.4,43.6,29.1,43.7,28.9,43.8 M25.3,30.3c-0.3-0.1-0.4,0-0.7-0.1
		c0.1-0.2,0.3-0.3,0.4-0.5C25.2,29.9,25.3,30.1,25.3,30.3 M2.2,15.4c-0.3,0.1-0.6-0.3-0.7-0.4C1.5,15,2.4,14.9,2.2,15.4L2.2,15.4
		 M2.9,14.6L2.9,14.6c0-0.1,0-0.1,0-0.1S2.9,14.5,2.9,14.6L2.9,14.6 M2.9,14.3C2.8,14.3,2.8,14.3,2.9,14.3c0-0.1,0-0.2,0-0.2
		C2.9,14.2,2.9,14.2,2.9,14.3L2.9,14.3 M1.9,14c-0.3,0,0-0.5-0.1-0.7C1.9,13.4,2.1,13.8,1.9,14 M0.9,8.6C0.3,9.9,2,10.9,2.1,11.9
		c-0.2-0.1-0.4-0.1-0.5,0c-0.2,0.1-0.4,0.2-0.5,0.3c-0.2,0.7-0.4,1.4-0.7,2c0,0.3-0.5,0.2-0.4,0.6c0.1,1,0.9,1.4,1.5,2
		c0.2,0.7,0.5,1.3,0.9,1.8c0.9,0.3,1.7,0.8,2,1.6C5,22.2,4.8,24.7,5,27c-1.2,0.8-0.2,3-0.1,4.3c-0.4,0.6-1,0.8-1.2,1.5
		c-0.4,1.9,2.6,2.1,2.6,3.8c-0.1,0.5-0.2,1-0.2,1.5c0.3,0.7,1.3,0.9,1.8,1.4C8.1,39.6,8,40,8,40.3c2,2.3,3.2,5.3,4.9,7.9
		c0,0.6,0.1,1.2,0.2,1.7c-0.2,0.4-0.3,0.8-0.4,1.2c-0.5,7,2,11.5,4.3,16.1c1.7,4.1,2.9,8.6,5,12.4c-3.1,1-6.5,1.7-7.1,5.6
		c0,1.4,0.2,2.6,0.8,3.5c-1.4,1.3-2.9,2.4-4.1,3.9c-1.7,1.4-3.9,2.3-4.8,4.7c-0.2,0.8-0.2,1.7-0.2,2.5c0.6,2.3,2.1,3.8,3.8,5.2
		c1.7,2.2,2.9,4.7,4,7.5c1,2.7,2,5.5,3.7,7.7c0.2,0.3,0.9,0.1,1.2,0.3c0.1,0.5-0.4,1.5,0,1.6l0,0c0.3-0.1,0-1.5,0.4-1.7
		c0.2,0.8-0.4,1.7,0.1,2.2c-0.2,0.5-0.4,0.8-0.3,1.4c-0.3,0.5-0.7,0.9-0.5,1.6c-0.6,1.2-1.9,1.8-2.2,3.6c0.2,0.7,0.8,1,1.4,1.4
		c0.1,0,0.1,0,0.2,0c1.5-0.4,1.7-2.3,3.1-2.8c0.1-0.3,0.2-0.4,0.2-0.7c2.6-3.1,5.2-6.2,7.6-9.4c-0.9-1.1-2.5-1.6-3.7-2.4
		c0-0.4,0.5-0.4,0.4-0.7c-0.2-0.3-0.6-0.4-0.7-0.8c-2.5-4.3-4.5-8.9-7.5-12.8c-0.5-0.4-1.1-0.8-1.4-1.4c0.2,0,0.4-0.1,0.6-0.1
		c1.5-0.4,2.9-1,4.3-1.7c1.4-0.6,2.7-1.2,4.3-1.7h0.1c4,3.5,6,8.5,10.3,11.8c0.3,0,0.5,0.2,0.7,0.2c0.4,0,0.7,0.1,1.1,0.1
		c-0.1,0.3,0.2,0.4,0.3,0.6c0.7,2.4,0.2,5.9,1.4,8c0.8,0.7,2.4,0.7,3.4,0.4c0.1,0,0.2-0.1,0.3-0.1c1-0.8,2.2-1.5,2.5-3.2
		c0.5-3-0.5-5.6-1.2-7.9c-0.8-2.4,0.2-5.8-2.2-7.1c-0.2-0.2-0.7-0.1-1-0.2c-2.1-2.1-4.2-4.3-6.2-6.6c1.2-0.8,2.1-1.9,3-3
		c0.2-0.1,0.5-0.1,0.7-0.2c3.5-1,6.2-3.4,6-8.2c0.5-0.3,1-0.5,1.1-1.2c-0.4-2.1-1.2-3.9-3.4-4.5c-2.1-3.7-5.9-6.2-7.4-10.4
		c0.4-0.6,1-0.9,1.4-1.6c0.2-0.9,0.5-2,0.5-3c1.6,0.8,2.7,2,4.5,2.7c0.3,0.4,0.2,1.2,0.7,1.4c0.8-0.2,2.2-0.6,2.6,0.3
		c-0.1,0.5-0.1,1,0,1.3c0.3,0.2,0.7,0.3,1.1,0.5c0.2,1.2,0.6,2.3,1.1,3.3c0.1,0.3,0.4,0,0.6,0.2c0.7,2.6,1,5.4,1.5,8.1
		c0,0.8-0.3,1.2-0.5,1.8c-0.1,1.6-0.1,3-0.1,4.5c0.3,0.5,0.8,0.8,1.1,1.2c0.1,0,0.3,0,0.4,0c0.2-0.1,0.3-0.2,0.5-0.3
		c0.1,0.3,0.5,0.4,0.9,0.3c0,0,0,0,0.1,0c0.2-0.2,0.4-0.4,0.3-0.7c0.1,0.3,0.5,0.4,0.8,0.3c0,0,0,0,0.1,0l0,0c0.3-0.1,0.2-0.7,0.4-1
		c-0.1,0.4,0.3,0.6,0.6,0.5c0.1,0,0.1,0,0.2-0.1c0.4-0.4,0.1-1.4,0.1-2c0-0.3,0.1-0.5,0.1-0.8c0.1-2.3-1.1-4-1.5-6.2
		c-0.3-2.1-0.5-4.3-0.8-6.8c0.2-0.2,0.6-0.2,0.7-0.6c-0.2-1.3-0.6-2.4-0.8-3.7c0.2-0.7,0.6-1.1,0.7-2c0.1-2.2-1.9-2.6-3.8-3.2
		c-0.5-0.4-0.6-1-1.1-1.3c-0.3-0.1-0.7-0.2-1.1-0.2c-0.4-0.4-0.7-0.8-0.9-1.3c-0.5-0.2-0.9-0.5-1.4-0.7c-2.2-2.9-4.9-5.4-7.4-8
		c-1.6-1.3-4.3-1.8-6.4-2.7c-0.8-0.1-1.6-0.2-2.1-0.5c0.2-0.1,0.4-0.2,0.6-0.3c0.1,0,0.2,0,0.3-0.1c1-0.3,1.8-1.6,2.7-2.3v0.2
		c0.7-0.4,0.8-1.4,1-2c0.4-0.4,0.4-1.1,0.5-1.6l0.1,0.1c0.4-0.3,0-0.8,0.5-1c0-0.2-0.1-0.5,0-0.8c-0.2-0.3-0.5-0.6-0.6-1h0.1
		c0.1,0,0.1-0.1,0.1-0.1c-0.1-0.5-1.2-1-1.1-1.5c0.1,0.1,0.2,0.3,0.4,0.4l0,0l0,0l0,0l0,0c0-0.5-0.9-0.8-0.7-1.3l-0.2-0.1
		c0-0.1,0-0.3-0.2-0.3c0-0.1,0.1-0.2,0-0.3h-0.1c0,0-0.1,0-0.1,0.1l-0.1,0.1h-0.1c-0.1-0.2-0.1-0.5-0.5-0.6c0-0.1,0-0.2-0.1-0.3l0,0
		c-0.1,0-0.1,0.1-0.1,0.1c0,0.1-0.1,0.1-0.1,0.1s0,0-0.1,0c-0.6-0.3-0.5-0.7-0.8-1.1l0,0c0,0,0,0.1-0.1,0.1v0.1l0,0
		c-0.3-0.3-0.1-0.8-0.5-1c-0.1,0.4,0.2,0.9,0,1.3c-0.3-0.2-0.2-0.5-0.5-0.6c-0.2,0.2,0.1,0.3,0,0.5c-0.4-0.3-0.4-0.7-0.8-0.9
		c-0.1,0,0,0.2-0.1,0.3l0,0c-0.2-0.1-0.2-0.3-0.4-0.5l0,0l0,0l0,0h-0.1c-0.3-0.3,0.1-1-0.3-1.2c0,0.4,0,0.7-0.2,1.1
		c-0.1-0.1-0.2-0.1-0.3-0.1c0-0.2-0.2-0.4-0.4-0.3l0,0c-0.2-0.1-0.2-0.4-0.5-0.5c-0.1,0.2,0.1,0.2,0,0.4c-0.2,0.2-0.5,0.4-0.7,0.6
		c-0.1-0.4,0.3-0.8,0-1.1c-0.3,0.5-0.1,1.3-0.7,1.7l-0.2-0.1c-0.1,0-0.1,0.2-0.2,0.2c0,0,0,0-0.1,0c0.1-0.3,0.5-0.9,0.3-1.2
		c-0.2,0.4-0.5,1-0.8,1.3l-0.1-0.2c-0.2,0.1-0.5,0.7-0.6,0.9c-0.2-0.3,0.2-0.9,0.1-1.1l0,0v-0.1C22,30.8,22,31.4,22,31.9
		c-0.3,0-0.6-0.2-0.9-0.2l0,0c-0.1,0.2,0.1,0.2,0.3,0.3c0,0.2,0.3,0.3,0.3,0.4c0,0-0.1,0-0.1,0.1h-0.1h-0.1c-0.1,0-0.2,0.1-0.2,0.2
		c0.3,0.1,0.7-0.2,1,0c-0.2,0.2-0.6,0.2-0.7,0.4c0.1,0.1,0.2,0.1,0.3,0.1l0,0l0,0c0.1,0,0.1,0,0.2,0c0,0.1-0.1,0.3-0.1,0.5l0,0
		c-0.5,0.6-1,1.2-1.5,1.8c0,0.4-0.1,0.9,0,1.2c-0.9,0.6-0.8,2.5-1.3,3.6c-2-1.2-3.1-3.2-4.6-4.8c0-0.4,0.3-0.5,0.2-0.9
		c-2.6-0.2-0.5-4.2-3-4.5c-0.4-1.4-0.7-2.9-2-3.7c-1.3-2.7-1.8-6-3.2-8.6c-0.8-1.8-1.1-4-2-5.7C4.3,12,3.9,12,3.8,11.9
		C2.7,10.6,1.9,9.5,0.9,8.6"/>
</g>
</svg>
