<?xml version="1.0" encoding="utf-8"?>
<!-- Generator: Adobe Illustrator 21.1.0, SVG Export Plug-In . SVG Version: 6.00 Build 0)  -->
<svg version="1.1" id="Layer_1" xmlns="http://www.w3.org/2000/svg" xmlns:xlink="http://www.w3.org/1999/xlink" x="0px" y="0px"
	 viewBox="0 0 131 137.6" style="enable-background:new 0 0 131 137.6;" xml:space="preserve">
<style type="text/css">
	.st0{clip-path:url(#SVGID_2_);fill:#7797CA;}
	.st1{clip-path:url(#SVGID_2_);}
	.st2{fill:#FFE380;}
	.st3{font-family:'Montserrat-Bold';}
	.st4{font-size:229px;}
	.st5{letter-spacing:-43;}
	.st6{letter-spacing:-11;}
	.st7{fill:#7797CA;}
	.st8{clip-path:url(#SVGID_4_);fill:#7797CA;}
	.st9{clip-path:url(#SVGID_4_);}
</style>
<g>
	<defs>
		<path id="SVGID_1_" d="M107.1,136.2c0-0.1,0.1-0.1,0.1-0.2c0,0,0,0.1-0.1,0.3c0,0,0,0,0,0C107,136.3,107,136.3,107.1,136.2
			 M115,127.2c0.1,0,0.1-0.1,0.1-0.1C115.2,127.2,115.1,127.2,115,127.2C115,127.2,115,127.3,115,127.2
			C115,127.3,115,127.3,115,127.2 M100.2,131c0,0,0.1,0,0.1,0c0,0,0,0,0.1,0c0,0,0,0,0.1,0c0,0,0.1,0,0.1,0
			c-0.1,0.1-0.2,0.2-0.2,0.4C100.2,131.3,100.2,131.1,100.2,131 M99.6,59c-0.3-0.1-0.3-0.4-0.4-0.7c0,0,0.1-0.1,0.1-0.1
			c0.2-0.1,0.5,0.3,0.5,0.6c0,0,0,0,0,0C99.7,58.9,99.7,58.9,99.6,59C99.7,59,99.7,59,99.6,59C99.6,59,99.6,59,99.6,59 M96,58.7
			c0-0.4-0.2-0.9-0.2-1.3c0.5,0.1,0.6,0.7,0.7,1.3c0,0-0.1,0-0.1,0C96.2,58.7,96.1,58.7,96,58.7 M95.9,56.8c0-0.2,0.1-0.3,0.2-0.4
			c0,0.1,0.1,0.1,0.1,0.2c0,0.1-0.1,0.1-0.1,0.1C96,56.8,96,56.8,95.9,56.8 M96.6,52.7c0.1,0,0.3,0,0.4,0.2c-0.3,0.2-0.7,0.6-0.6,1
			C95.8,53.7,96.1,52.8,96.6,52.7 M114.7,48.1c0-0.5,0.2-0.6,0.3-0.9c0.2,0.2,0.5,0,0.8,0c-0.1,0.4-0.6,0.7-0.6,1.2
			C115,48.3,114.8,48.2,114.7,48.1 M114.4,46.1c0-0.3,0.3-0.5,0.3-0.8c0.3,0,0.1,0.4,0.3,0.5l0.2,0c-0.1,0.3-0.2,0.4-0.4,0.6
			C114.7,46.2,114.5,46.3,114.4,46.1 M96,50.4C96,50.4,96,50.4,96,50.4c0,0.2-0.1,0.3-0.2,0.5C95.7,50.6,95.8,50.4,96,50.4
			 M114.3,43.7C114.3,43.7,114.4,43.7,114.3,43.7c0.2-0.1,0.5,0.1,0.6,0.2c0,0.2-0.1,0.3-0.2,0.4C114.6,44.1,114.4,43.9,114.3,43.7
			 M97.6,49c-0.1-0.2-0.2-0.5-0.2-0.8c0.4,0.1,0.6,0.2,0.7,0.5c-0.1,0.1-0.3,0.2-0.4,0.3C97.7,49,97.6,49,97.6,49 M97.4,47.2
			C97.4,47.2,97.4,47.2,97.4,47.2C97.4,47.2,97.4,47.2,97.4,47.2C97.5,47.2,97.5,47.2,97.4,47.2C97.5,47.2,97.5,47.2,97.4,47.2
			 M97.6,46.9c-0.1,0-0.2-0.1-0.3-0.2c0.1-0.1,0.2-0.2,0.3-0.3c0,0,0,0,0.1,0c0,0.1,0.1,0.2,0.2,0.3c0,0,0,0,0,0c0,0-0.1,0-0.1,0.1
			C97.7,46.8,97.7,46.8,97.6,46.9C97.6,46.9,97.6,46.9,97.6,46.9 M109.9,38.7c0-0.1,0-0.2,0.1-0.2C110.1,38.6,110.1,38.7,109.9,38.7
			C110,38.7,110,38.7,109.9,38.7 M106,20.1c-0.1,0.7-0.2,1.4-0.8,1.5c-0.1,0-0.1,0-0.2,0c-0.6-0.5,0-1.9-1-2.2
			c-0.8,0.5-0.2,1.9-0.1,2.6c-0.2,0.6-0.4,1-0.6,1.5c0,0.5-0.1,0.9-0.1,1.4c-1.2,4.7-3,9.1-3.7,14c-0.3,0.6-0.4,1.4-0.4,2.3
			c0,0.8,0.1,1.6,0.1,2.5l0,0c0,0-0.1,0-0.1,0.1c-0.1,0-0.2,0-0.4,0c-0.1,0-0.3,0-0.4,0c-0.1,0-0.2,0.1-0.3,0.3
			c0,0.3,0.2,0.7,0.3,0.9c0,0,0,0-0.1,0c-0.1,0-0.3-0.1-0.5-0.1c0,0.1,0,0.1,0,0.3c0.3,0.1,0.6,0.2,0.6,0.6c-0.2-0.1-0.4-0.1-0.6,0
			c-0.3,0.1-0.6,0.3-0.7,0.6c0.1,0.4,0.1,0.8,0.3,1.1c0,0,0,0,0,0c-0.7,0.2-0.4,1.2-0.1,1.5c-0.1,0.3-0.2,0.4-0.4,0.5
			c-0.2,0-0.4,0-0.6,0c-0.9,0.3-1.1,1.7-0.4,2.3c0.2,0,0.2,0.1,0.4,0c0.2-0.1,0.3-0.3,0.4-0.6c0,0-0.1,0-0.1,0
			c-0.1,0-0.1,0.1-0.2,0.2c-0.1,0.1-0.1,0.1-0.2,0.2c0,0-0.1,0-0.2,0c-0.3-0.4,0.1-1.1,0.4-1.4c0.2,0.2,0.5,0.2,0.7,0.1
			c0.2-0.1,0.4-0.2,0.6-0.3c0.1,0.2,0.3,0.6,0.2,1c-0.5,0.2-0.9,0.4-1.1,0.9c-0.1,0-0.2,0-0.2,0c-0.5,0.1-0.8,0.5-0.9,1.2
			c0.2,0.6,0.6,0.9,0.8,1.4c0,0.1-0.1,0.2-0.3,0.3c-0.1,0-0.3,0-0.4,0c-0.2-0.3-0.1-0.8-0.4-1c0,0,0,0,0,0c0,0,0,0-0.1,0.1
			c0,0,0,0.1,0,0.1c0,0,0,0,0,0c-0.1,0.2,0.2,0.6,0,0.8c0.1,0.3,0.4,0.4,0.4,0.7c0.2,0.1,0.3,0.1,0.5,0.1c0.3-0.1,0.5-0.3,0.7-0.5
			c0.1,0.1,0.1,0.2,0.2,0.4c-0.1,0.1-0.2,0.1-0.3,0.2c-0.1,0-0.2,0-0.3,0.1c-0.1,0-0.2,0-0.3,0.1c-0.1,0-0.1,0-0.1,0.1
			c-0.3,0.3-0.4,0.8-0.7,1.2c0,0.4-0.2,0.7-0.2,1c0.2,0.4,0.6,0.6,0.7,1.1c0.2,0,0.4,0,0.6-0.1c0.3-0.1,0.6-0.2,0.7-0.5
			c0.2,0.1,0.4,0.3,0.4,0.7c-0.4,0.3-0.9,0.5-1.1,1.1c0,0.4,0.1,0.9,0.5,0.9c0.1-0.2-0.2-0.4-0.2-0.6c0.1-0.6,0.6-0.7,1-0.9
			c0.1-0.2,0.1-0.3,0.2-0.4c0.3,0.4-0.5,0.8-0.5,1.3c0,0.6,0.2,1,0.5,1.3c0,0,0.1,0,0.1-0.1c0.1,0,0.1,0,0.2,0c0.1,0,0.1,0,0.2,0
			c0.2,0,0.3-0.1,0.2-0.4c-0.1,0-0.1,0-0.2,0c0,0-0.1,0-0.1,0c0,0-0.1,0-0.1,0c-0.1,0-0.1,0-0.2-0.1C98,61.5,98,61.3,98,61.2
			c0.2-0.3,0.5-0.4,0.6-0.9c0-0.2,0-0.3-0.1-0.3c0.1-0.4-0.3-0.8-0.1-1.1c0.4,0.1,0.4,0.6,0.7,0.7c-0.1,0.8,0.1,1.4,0.8,1.3
			c0,0,0.1,0,0.1,0c-0.1-0.3-0.4-0.5-0.5-0.8c0-0.2,0.1-0.3,0.3-0.3c0.1,0,0.1,0,0.2,0c0.1,0,0.2,0,0.2,0c0,0,0.1,0,0.1,0
			c0-0.2-0.2-0.2-0.3-0.3c0.1-0.3,0.2-0.5,0.2-0.8c0.2,0,0.2,0.2,0.3,0.2c0.1,0.1,0.1,0.3,0.2,0.4c-0.2,0.4-0.5,0.8-0.6,1.4
			c0.1,0.5,0.3,0.8,0.5,1c0,0,0,0,0,0c0,0,0,0,0,0c0,0,0,0,0,0c0,0,0.1,0,0.1,0c-0.1-0.3-0.4-0.7-0.1-1.2c0.1-0.2,0.3-0.3,0.4-0.3
			l0.1,0.2c0.6,0.6,1,1,1.3,1.7c0.8,4.9,3.9,8,6.3,11.8c0.9,0.6,1.9,1.1,2.3,2.1c-0.3,1.4-1.1,2.3-1.4,3.7c-0.4,2-1,3.8-1.1,6.1
			c0.7,5.8,3,10.4,4.6,15.5c-0.6,1.1-1.1,2.2-1.6,3.4c0.3,1.2-0.5,2.3-0.6,3.7c-2,1.4-3.4,3.5-4.8,5.6c-1.9,5.3-2.9,11.6-5.9,15.8
			c0,0.4,0.1,0.6,0.2,0.9c-0.8,0.7-0.7,2-0.7,3.1c0,0,0,0,0,0c-0.3,0.1-0.4,0.3-0.4,0.7c0.1,0.7,0.7,1.1,1.4,1.5
			c0.1,0.4,0.2,0.9,0.3,1.3c1.3,0.8,4,0.9,5.7,0.5c0.2-0.1,0.4-0.1,0.5-0.2c0.1-0.5,0.2-1,0-1.5c-0.5-0.6-1.4-0.9-1.9-1.4
			c-0.3-1.3-1.2-2.1-1.5-3.4c0.2-0.5,0.3-1.1,0.3-1.7c3.1-6,8.1-10,10.7-16.4c0.5,4.2,1.4,8,1.4,12.6c-0.2,0.4-0.5,0.7-0.5,1.3
			c-0.1,0-0.2,0-0.3,0c-0.4,0.1-0.6,0.4-0.9,0.5c-0.1,0.9-1.1,1.5-0.6,2.6c-0.1,0-0.1,0-0.2,0c-0.3,0.1-0.4,0.4-0.4,0.7
			c0.3,0.8,0.8,1.4,1.6,1.9c0.1,0.5,0.2,0.9,0.5,1.3c2,1.1,5.2,2,8.3,2c0.2-0.5-0.2-0.7-0.4-1c0.7-0.7-0.2-1.7-0.5-2.4
			c-1.3-0.2-1.4-1.1-1.8-1.9c0.5-0.8-0.2-1.7-0.6-2.2c-0.3-0.7-0.1-1.4-0.2-2.1c0-0.6-0.2-1.3-0.2-2c0-1.2,0.3-2.5,0.6-3.7
			c0.7-4.2,1.8-7.9,2.4-12c0-0.1,0-0.1,0.1-0.2c0,0,0.1,0,0.1,0c0,0,0.1,0,0.1,0c0.1,0,0.1-0.1,0.1-0.2c2.4-7.8,6.5-13.9,7.9-22.8
			c0-0.6,0-1.1,0.1-1.7c-0.4-4.1-1.8-7.4-3.7-10.4c-0.9-1.6-2.2-2.8-3.3-4.1c-1-1.5-1.5-3.3-1.9-5.2c0.1-0.8,0.1-1.6,0.2-2.4
			c-0.1-2.1-1.7-3-3.1-4.2c-0.1-0.6-0.4-1.2-0.6-1.8c0.4-0.8,0.8-1.6,1.1-2.5c1.7-1.7,2.1-4.3,2.6-6.8c0.3-1.5,1.1-3.2,1.8-4.3
			c0.3-0.5,0.8-0.8,1.1-1.3c2.3-3.5,3.4-7.9,5.1-12c-0.1-0.7-0.2-1.2,0-2c-1.1-1.3-2-2.7-3.4-3.7c-0.6-0.8-0.8-1.9-1.8-2.4
			c-0.1-0.5-0.2-1.1-0.7-1.4c-0.3,0-0.6,0-0.7,0c0,0,0,0,0,0c0.3,0.8,0.5,1.6,0.7,2.5c-1.1-0.3-1.4-2.3-3-1.9
			c1.9,2.7,3.8,5.6,5.9,8.2c-1.8,3.3-4.2,6.1-6.1,9.3c-1.2,1.4-1.2,3.9-2.1,5.7c-0.8,1.8-1.6,3.6-2.4,5.4c-0.6,1-1.5,1.8-2.2,2.6
			c0.1-0.3,0.3-0.5,0.3-1c-0.1-0.2-0.2-0.3-0.5-0.3c0.1-0.2,0.1-0.5,0.1-0.8c0.3,0,0.4,0.2,0.6,0.3c0,0.3-0.1,0.5-0.2,0.8
			c0,0,0,0,0,0c0.2,0,0.1,0.1,0.2,0.1c0.3-0.2,0.3-1,0.1-1.3c0.1,0.1,0.5,0.1,0.7,0.1c0.2-0.1,0.4-0.2,0.4-0.4c-0.1,0-0.1,0-0.2,0
			c0,0-0.1,0-0.1,0c0,0-0.1,0-0.1,0c-0.1,0-0.2,0-0.4-0.1c0-0.5,0.4-0.6,0.6-0.9c0-0.5-0.6-0.4-0.9-0.7c0.2-0.4,0.6-0.5,0.7-1
			c-0.1-0.2-0.3-0.3-0.5-0.4c-0.1-0.2,0-0.5-0.2-0.5c0-0.2,0.1-0.3,0-0.5c-0.1-0.5-0.5-0.7-0.8-1c-0.6,0-0.7-0.4-0.9-0.8
			c0-0.2,0-0.3,0-0.4c0-0.1-0.2-0.1-0.2-0.3c0.2-0.7,0.2-1.4-0.5-1.4c-0.1-0.4-0.3-0.8-0.9-0.9c-0.1-0.3-0.3-0.6-0.6-0.7
			c-0.2,0-0.3,0-0.5,0c-0.8-0.1-0.9-0.9-1.7-0.9c-0.1,0-0.1,0-0.1,0c-0.1,0-0.1,0-0.2,0.1c-0.1,0-0.1-0.2-0.2-0.2
			c-0.3,0.1-0.5,0.1-0.8,0.2c-0.2-0.1-0.3-0.4-0.5-0.5c-0.3,0-0.5,0.1-0.8,0.1c-0.1-0.1-0.2-0.2-0.3-0.2c-0.1,0-0.1,0.1-0.2,0.1
			c-0.1,0-0.2-0.1-0.3,0c0,0,0,0-0.1,0c0,0,0,0,0,0c0,0-0.1,0.1-0.1,0.1c0,0.1,0,0.1-0.1,0.1c0,0,0,0,0,0c0,0,0,0,0,0
			c0,0-0.1,0-0.2,0c-0.1,0-0.2,0-0.3,0c0,0,0,0-0.1,0c-0.1,0-0.1,0.3-0.3,0.4c-0.1,0-0.2,0-0.3,0.1c1-3.6,1-8.1,2-11.7
			c1.4-0.7,2.9-1.3,4-2.3c0.7-1.2,1.8-2.1,2.4-3.4c-0.4-0.2-0.8-0.4-1.4-0.5c-1,0.5-1.5,1.5-2.6,1.8c-0.1,0-0.1,0-0.2,0
			c0.3-0.8,1.3-1.6,1.1-2.4c-0.2-0.1-0.4-0.1-0.6-0.1c-0.4,0.1-0.6,0.7-0.9,1c-0.3,0.4-0.7,0.8-1.2,1c-0.1,0-0.2,0.1-0.4,0
			c0-0.9,0.7-2.4,0.1-3c0,0,0,0-0.1,0C106.2,18.7,106.1,19.4,106,20.1"/>
	</defs>
	<clipPath id="SVGID_2_">
		<use xlink:href="#SVGID_1_"  style="overflow:visible;"/>
	</clipPath>
	
		<rect x="84.6" y="18.8" transform="matrix(0.9636 -0.2672 0.2672 0.9636 -16.5484 33.2871)" class="st0" width="58.8" height="117.3"/>
	<g class="st1">
		<text transform="matrix(1 8.730000e-03 -8.730000e-03 1 89.5013 156.0074)"><tspan x="0" y="0" class="st2 st3 st4"> </tspan><tspan x="53.1" y="0" class="st2 st3 st4 st5"> </tspan><tspan x="63" y="0" class="st2 st3 st4 st6">0</tspan><tspan x="212.7" y="0" class="st2 st3 st4">9</tspan></text>
	</g>
</g>
<g>
	<path class="st7" d="M70.7,111.4l0-0.2c0-0.3-0.3-0.4-0.3-0.7c0.1-5.1,3-10,1-14.6c1.1-2.7,0.2-6.7,0.7-9.9l0.1-0.1
		c0.1,0.1,0.3,0.2,0.5,0.2c1.1,5.2-0.8,11.6,0,16.8c-1.2,2.2-2,5.1-2,8.3L70.7,111.4 M68.5,52.1L68.5,52.1L68.5,52.1L68.5,52.1
		 M67.7,52.8c0-0.4-0.3-0.5-0.3-0.8C67.7,52,67.9,52.5,67.7,52.8 M67.4,52.6c-0.3-0.1-0.3-0.5-0.5-0.7c-0.2-0.1-0.3-0.2-0.5-0.4
		c0-0.2-0.2-0.4-0.1-0.6C66.6,51.6,67.2,51.9,67.4,52.6 M66,50.9c-0.1-0.3-0.1-0.7-0.1-1c0.2-0.1,0.3-0.3,0.4-0.4
		C66.1,49.9,66,50.5,66,50.9 M68.3,51.5c-0.4-0.2-0.7-0.3-1-0.7c-0.5-1.2-0.1-2.1,0.5-2.9C68,49,68.1,50.3,68.3,51.5 M86.1,39.3
		C86,39.1,85.9,39,86,39L86.1,39.3 M85.9,38.8C85.8,38.8,85.8,38.7,85.9,38.8C85.8,38.7,85.8,38.7,85.9,38.8 M85.5,41.9
		c-0.3-0.1-0.4-0.4-0.6-0.5c0-0.1,0.1-0.1,0.1-0.2c-0.3-0.6-0.8-1.1-1.2-1.6c0.1-0.3,0.3-0.6,0.4-0.8C84.8,39.6,85.4,40.6,85.5,41.9
		 M82.5,30.9c-0.1-0.4-0.1-0.8-0.3-1.2l0-0.1c0.1,0.3,0.3,0.6,0.4,0.9C82.7,30.7,82.6,30.8,82.5,30.9 M82.2,31
		c-0.2-0.5-0.5-1.2-0.5-1.7C82,29.8,82.3,30.5,82.2,31 M66.4,34.4c-0.2-0.1-0.5-0.3-0.7-0.4l0.1,0c0.2-0.2,0.5-0.3,0.7-0.6
		C66.5,33.7,66.4,34,66.4,34.4 M66.3,32.8l0.1-0.1L66.3,32.8 M65.7,32.5c0.3-0.1,0.6-0.3,0.8-0.5c-0.1,0.3-0.3,0.4-0.5,0.7
		c-0.2,0.2-0.6,0.3-0.6,0.6c0.1,0,0.1,0,0.1,0c0,0,0.1,0,0.1,0c0,0,0.1,0,0.1,0c0,0,0.1,0,0.1,0c-0.1,0.2-0.3,0.4-0.5,0.5l-0.1-0.1
		c-0.1-0.1-0.2-0.2-0.4-0.3c0.1-0.3,0.2-0.6,0.3-0.9C65.3,32.6,65.5,32.6,65.7,32.5 M64.2,32.5c0.1,0,0.1,0,0.2-0.1
		c0.1,0.2,0.2,0.4,0.2,0.6c-0.2-0.2-0.3-0.3-0.5-0.5C64.2,32.6,64.2,32.6,64.2,32.5 M65.4,31C65.4,31,65.4,31,65.4,31
		c0-0.1,0.1-0.3,0.2-0.3C65.6,30.8,65.5,31,65.4,31 M65.4,32c0.4-0.6,0.8-1.2,1.2-1.7C66.4,30.9,66.1,31.7,65.4,32 M65.8,30.4
		C65.8,30.4,65.8,30.4,65.8,30.4C65.9,30.3,65.9,30.3,65.8,30.4C65.9,30.3,65.9,30.3,65.8,30.4C65.8,30.4,65.8,30.4,65.8,30.4
		 M65.1,31.8c0.4-0.6,0.9-1,1.1-1.7c0.2-0.1,0.3-0.4,0.5-0.5l0.1,0C66.2,30.4,65.8,31.3,65.1,31.8 M44.4,8.6c-0.3-0.1-1.1-0.5-1-0.5
		c0,0,0,0,0,0C43.8,8.1,44.4,8.4,44.4,8.6 M45.9,3.6c-0.4,1.3,1.1,2.5,1.5,3.9c-0.1,0-0.2,0.1-0.3,0.1c-0.2,0.1-0.4,0.1-0.6,0.1
		c-0.2,0-0.4,0.1-0.6,0.1c-0.1,0-0.2,0.1-0.3,0.1c-0.5-0.6-1.7-0.8-2.7-0.7c0.1,0.2,0,0.7,0.3,0.7c0,0,0,0,0,0
		C42.9,8,42.6,7.6,42,7.6c0,1.3,1.4,1.2,2,1.9c0.7,0.6,1.2,1.4,1.9,2c0.5,1.1,1.3,1.9,2,2.8c0.3,0,0.5,0.2,0.8,0.3
		c2.7,4.2,3.8,9.9,7.2,13.5c0.9,2.3,2.7,3.7,3.5,6.1c0.8,2,2.3,3.4,3.6,4.9c-0.1,0.1-0.5,0.1-0.5,0.4c-0.1,0-0.1,0-0.2,0
		c-0.3,0.1-0.6,0.2-0.8,0.4c0.1,0.1,0.3,0.1,0.4,0c0.1,0,0.2,0,0.2-0.1c0.1,0,0.2-0.1,0.2-0.1c0,0,0,0,0,0c0.3-0.1,0.7-0.2,1-0.2
		l0.1,0c0.1,0.2,0.2,0.3,0.3,0.5c-0.1,0-0.3,0.1-0.4,0.1c-0.5,0.4-0.7,1.4-0.5,2.3c0.2-0.2,0-0.7,0.2-1c0.3-0.3,0.4-0.7,0.8-1
		c0,0.3-0.4,0.5-0.3,1c0.3-0.2,0.5-0.4,0.7-0.6c0.1,0.1,0.1,0.3,0.2,0.4c-0.2,0.4-0.3,0.9-0.2,1.6c-0.1,0.4-0.6,0.5-0.7,1
		c0.1,0,0.2,0,0.2,0c0.2,0,0.3-0.2,0.4-0.2c0.1,0.3,0.1,0.7,0.2,0.9c-0.2,0.6-0.7,1-0.7,1.6c0.1,0,0.1,0,0.1,0
		c0.1,0,0.2-0.1,0.3-0.1c0.2,0.2,0,0.8,0.2,1c-0.8,1-1.4,2.5-1,4.4c0.2,0.3,0.2,0.8,0.4,0.9c0.1,0,0.1-0.2,0.1-0.4
		c0.2,0,0.2,0.3,0.4,0.3c0-0.4-0.5-0.8-0.2-1.3c0.2,0.3,0.3,0.7,0.6,0.9c0.4,1.4-0.1,2.7-1,3.2c-0.2,0-0.2-0.1-0.4-0.1
		c-0.1,0.1,0.2,0.2,0.3,0.3c0,0.1-0.2,0.1-0.2,0.3c0.1,0.1,0.2,0.1,0.3,0c0.9-0.6,1.5-1.4,1.7-2.6c0-1.2-0.5-1.8-0.7-2.7
		c0.2-0.2,0.5-0.2,0.7-0.3c0.1,0.1,0.1,0.3,0.1,0.5c0.2,1,0.8,1.7,1.2,2.5c-0.1,0.6-0.3,1.1-0.6,1.6c0,0,0,0,0,0c0,0-0.1,0-0.1,0.1
		c0,0-0.1,0-0.1,0c0,0,0,0,0,0c0,0,0,0,0,0c0,0,0,0-0.1,0c0,0-0.1,0-0.1,0c0,0-0.1,0-0.1,0.1l0,0c0.1,0.1,0.3,0.1,0.4,0
		c0,0,0.1,0,0.1,0c0,0,0.1,0,0.1,0c0,0,0.1,0,0.1,0c0.7-0.6,1.3-1.2,1.8-2c0-0.3-0.1-0.4-0.1-0.6c0.2,0,0.3,0.1,0.5,0.2
		c0.2,0.4,0.3,0.9,0.3,1.5c0.7,1.1,1.6,2,1.8,3.4c-0.2,1.1,0.1,1.9-0.1,2.7c-0.2,0.9-1.1,1.3-1.3,2.1c-2.2,1.4-4.2,3.1-5.4,5.7
		c-1.7,3.6-1.3,8.6-1.7,13.7c0.5,0.3,1,0.6,1.8,0.8c0.9,4.1,1.6,8.4,2.3,12.7c-2.4,5.1,0.8,10.3,1.5,15.1c-0.1,0.4-0.6,0.6-0.8,1
		c-0.7,1.2-0.6,2.7-0.7,4.5c-0.1,2.1-0.8,4.5-0.1,6c0.9,1.3,2.5,2.3,4.8,2c-0.3,0.8-1.1,1.9-0.3,2.7c-0.8,0.7-0.9,1.9-1,3.4
		c-0.5,1.8-1.6,3.2-1.4,5.4c1.2,1,3.6,1.1,5.5,0.6c0.9-0.2,1.7-0.6,2.1-1.1c0-0.1,0-0.2,0.1-0.2c0,0,0,0,0,0
		c-0.2-1.8-0.9-3.1-1.3-4.5c0-1.3-0.5-2.3-1.1-3.3c0.1-0.4,0.3-0.6,0.3-1.1c-0.7-2,0.3-3.6,0.9-5.5c0.4-1.3,0.7-2.6,1.1-3.8
		c1.3-4.1,2.9-8,1.7-13.2c1.3-5.4,2.7-10.6,4.1-15.8c0,0,0.1,0,0.1,0c0.3-0.1,0.5-0.4,0.8-0.5c0.5-0.1,0.3,0.4,0.6,0.3
		c0,0,0.1,0,0.1,0c0.7-0.4,0.5-1.4,0.5-2.2c0.1-2.2,0-3.9-0.2-5.9c-0.1-1.1-0.4-2.2-0.4-3.2c0-1.8,1.3-3.3,1.1-5.2
		c0-0.1,0.1-0.2,0.2-0.2c0,0,0.1,0,0.1,0c0,0,0.1,0,0.1,0c0.1,0,0.2-0.1,0.2-0.2c0-0.7,0.1-1.1,0.3-1.5c0.3-1.9,0-3.7-0.1-5.4
		c-0.3-3.2,0.2-6.6,0-10.1c0.1-0.8,0.6-1.2,0.7-1.9c0.3-2.6-1.1-4.4-2.2-6.1l0-0.2c0.2-0.5,0.3-1.1,0.4-1.8c0-0.5-0.1-0.7-0.2-1.2
		c-0.1-0.3-0.3-0.7-0.2-1c0.9,0.7,1.3,2.1,2.7,2.2c0,0,0,0,0,0c0.1,0,0-0.1,0.1-0.2c0.4,0,0.4,0.1,1,0c0,0,0-0.1,0-0.1c0,0,0,0,0,0
		c0,0,0,0.1,0,0.1c0,0,0-0.1,0-0.1c-0.1,0-0.1,0-0.2,0c0,0,0,0,0,0c-0.1-0.1-0.3,0-0.4-0.1c-0.3,0-0.5-0.1-0.7-0.2
		c-0.2-1.5-0.6-3.4-1.4-4.6l0-0.1c0.6,0.3,1,1,1.4,1.7c0.1,0,0.1,0.1,0.3,0.1c0,0,0-0.1,0-0.1c0,0,0.1,0.1,0.1,0
		c0-0.3-0.2-0.5-0.3-0.7c-0.5-0.5-0.9-1-1.3-1.4l0.1-0.2c1.9-2.9,2.8-7,4.4-10.3c0.6-0.7,1.1-1.4,1.5-2.1l0.1-8.9
		c-0.3,0.5-0.6,0.9-1,1.4c-1.5,2.2-2.9,4.5-3.7,7.4c-1.3,1.6-2.2,3.6-3.2,5.6l0-0.1c-0.2-0.5-0.3-0.9-0.5-1.3c0.3,0.1,0.7,0.4,1,0.3
		c0,0,0.1,0,0.1,0c-0.2-0.2-0.5-0.2-0.7-0.3c-0.8-0.5-1.2-1.5-1.8-2.3c-0.6-0.8-1.2-1.5-2-2.1c0,0,0.1,0,0.1-0.1c0.1,0,0.1,0,0.2,0
		c0.1,0,0.1,0,0.2,0c0.1,0,0.1-0.1,0.2-0.1c0-0.2-0.2-0.2-0.3-0.3c-0.4,0-0.7-0.1-1-0.3c-0.2-0.1-0.3-0.3-0.5-0.5
		c-0.3-0.3-0.7-0.5-0.8-0.9c-0.5-0.3-0.9-0.6-1.6-0.6c0,0-0.1,0-0.1,0c-0.3,0.1-0.5,0.2-0.7,0.4c-0.2,0-0.5-0.1-0.6-0.1l0.1,0l0,0
		c-0.7,0-1.3,0-1.8,0.1c-0.5,0.1-0.9,0.4-1.2,0.7L71,23.1c-0.8,0.8-1.3,2-1.6,3.3c-0.1,0.2-0.2,0.4-0.2,0.6
		c-0.2,0.3-0.5,0.6-0.6,0.9c-0.4,0.4-1,0.7-1.4,1c-0.4,0.4-0.8,0.8-1.2,1.2c-0.3,0.5-0.7,0.9-0.9,1.4c-0.2,0.2-0.4,0.4-0.7,0.6
		c-0.1,0.1-0.3,0.2-0.4,0.2l0,0C63,31.2,62.2,30,61.2,29c-1.5-1.4-1.4-4.3-2.6-5.9c-2.4-3.4-5-6.5-7-10.3c0.3-0.8,0.1-1.6-0.1-2.3
		c-0.4-0.2-0.8-0.5-1.2-0.7c-0.7-1.5-1.8-2.7-2.4-4.3C47.1,5.2,47.1,3.8,45.9,3.6"/>
</g>
<g>
	<defs>
		<path id="SVGID_3_" d="M94.4,5.9c-1.2-0.6,0.5-2.8-1.3-3.1c-0.3,1.4-0.6,2.4-0.5,3.7c0.1,1.3,1,2.4,1,3.5c0.1,1.3-1,3-1.6,4
			c-0.4,0.7-0.8,1.3-1.2,1.9l-0.1,8.9c2.4-3.9,3.8-8.8,6-12.8c1-1.2,2.1-2.3,2.9-3.7c0.9-1.3,2.4-1.9,3-3.5c-0.2,0-0.3,0-0.5,0.1
			c-1.2,0.3-1.6,1.5-2.6,2c-0.2-1.3,1.3-3.2,0.1-4.3c-0.8,0.7-0.5,2.3-1.2,3.2c-0.2-0.9,1-1.9,0.5-3c-0.1,0-0.2,0-0.3,0
			c-0.8,0.2-0.8,1.7-1.4,2.3c-0.6-0.4-0.1-1.3,0.1-1.8c-0.1-1.2,0.8-2,0.3-3.1C95.7,1,96.7,5.2,94.4,5.9"/>
	</defs>
	<clipPath id="SVGID_4_">
		<use xlink:href="#SVGID_3_"  style="overflow:visible;"/>
	</clipPath>
	<rect x="87.4" y="0.9" transform="matrix(0.9636 -0.2672 0.2672 0.9636 0.3088 26.0567)" class="st8" width="16.9" height="22"/>
	<g class="st9">
		<text transform="matrix(1 8.730000e-03 -8.730000e-03 1 89.5013 156.0074)"><tspan x="0" y="0" class="st2 st3 st4"> </tspan><tspan x="53.1" y="0" class="st2 st3 st4 st5"> </tspan><tspan x="63" y="0" class="st2 st3 st4 st6">0</tspan><tspan x="212.7" y="0" class="st2 st3 st4">9</tspan></text>
	</g>
</g>
<g>
	<path class="st7" d="M29,44.3c0.1-0.2,0.4-0.4,0.6-0.6l0.1,0.1C29.5,44.1,29.2,44.2,29,44.3 M25.4,30.8c-0.3-0.1-0.4,0-0.7-0.1
		c0.1-0.2,0.3-0.3,0.4-0.5C25.3,30.4,25.4,30.6,25.4,30.8 M2.3,15.9C2,16,1.7,15.6,1.6,15.5C1.6,15.5,2.5,15.4,2.3,15.9
		C2.3,15.9,2.3,15.9,2.3,15.9 M3,15.1C3,15.1,3,15.1,3,15.1C3,15,3,15,3,15C3,15,3,15,3,15.1C3,15.1,3,15.1,3,15.1 M3,14.8
		C2.9,14.8,2.9,14.8,3,14.8c0-0.1,0-0.2,0-0.2C3,14.7,3,14.7,3,14.8C3,14.8,3,14.8,3,14.8 M2,14.5c-0.3,0,0-0.5-0.1-0.7
		C2,13.9,2.2,14.3,2,14.5 M1,9.1c-0.6,1.3,1.1,2.3,1.2,3.3c-0.2-0.1-0.4-0.1-0.5,0c-0.2,0.1-0.4,0.2-0.5,0.3c-0.2,0.7-0.4,1.4-0.7,2
		c0,0.3-0.5,0.2-0.4,0.6c0.1,1,0.9,1.4,1.5,2c0.2,0.7,0.5,1.3,0.9,1.8c0.9,0.3,1.7,0.8,2,1.6c0.6,2,0.4,4.5,0.6,6.8
		c-1.2,0.8-0.2,3-0.1,4.3c-0.4,0.6-1,0.8-1.2,1.5c-0.4,1.9,2.6,2.1,2.6,3.8c-0.1,0.5-0.2,1-0.2,1.5c0.3,0.7,1.3,0.9,1.8,1.4
		c0.2,0.1,0.1,0.5,0.1,0.8c2,2.3,3.2,5.3,4.9,7.9c0,0.6,0.1,1.2,0.2,1.7c-0.2,0.4-0.3,0.8-0.4,1.2c-0.5,7,2,11.5,4.3,16.1
		c1.7,4.1,2.9,8.6,5,12.4c-3.1,1-6.5,1.7-7.1,5.6c0,1.4,0.2,2.6,0.8,3.5c-1.4,1.3-2.9,2.4-4.1,3.9c-1.7,1.4-3.9,2.3-4.8,4.7
		c-0.2,0.8-0.2,1.7-0.2,2.5c0.6,2.3,2.1,3.8,3.8,5.2c1.7,2.2,2.9,4.7,4,7.5c1,2.7,2,5.5,3.7,7.7c0.2,0.3,0.9,0.1,1.2,0.3
		c0.1,0.5-0.4,1.5,0,1.6c0,0,0,0,0,0c0.3-0.1,0-1.5,0.4-1.7c0.2,0.8-0.4,1.7,0.1,2.2c-0.2,0.5-0.4,0.8-0.3,1.4
		c-0.3,0.5-0.7,0.9-0.5,1.6c-0.6,1.2-1.9,1.8-2.2,3.6c0.2,0.7,0.8,1,1.4,1.4c0.1,0,0.1,0,0.2,0c1.5-0.4,1.7-2.3,3.1-2.8
		c0.1-0.3,0.2-0.4,0.2-0.7c2.6-3.1,5.2-6.2,7.6-9.4c-0.9-1.1-2.5-1.6-3.7-2.4c0-0.4,0.5-0.4,0.4-0.7c-0.2-0.3-0.6-0.4-0.7-0.8
		c-2.5-4.3-4.5-8.9-7.5-12.8c-0.5-0.4-1.1-0.8-1.4-1.4c0.2,0,0.4-0.1,0.6-0.1c1.5-0.4,2.9-1,4.3-1.7c1.4-0.6,2.7-1.2,4.3-1.7
		c0,0,0.1,0,0.1,0c4,3.5,6,8.5,10.3,11.8c0.3,0,0.5,0.2,0.7,0.2c0.4,0,0.7,0.1,1.1,0.1c-0.1,0.3,0.2,0.4,0.3,0.6
		c0.7,2.4,0.2,5.9,1.4,8c0.8,0.7,2.4,0.7,3.4,0.4c0.1,0,0.2-0.1,0.3-0.1c1-0.8,2.2-1.5,2.5-3.2c0.5-3-0.5-5.6-1.2-7.9
		c-0.8-2.4,0.2-5.8-2.2-7.1c-0.2-0.2-0.7-0.1-1-0.2c-2.1-2.1-4.2-4.3-6.2-6.6c1.2-0.8,2.1-1.9,3-3c0.2-0.1,0.5-0.1,0.7-0.2
		c3.5-1,6.2-3.4,6-8.2c0.5-0.3,1-0.5,1.1-1.2c-0.4-2.1-1.2-3.9-3.4-4.5c-2.1-3.7-5.9-6.2-7.4-10.4c0.4-0.6,1-0.9,1.4-1.6
		c0.2-0.9,0.5-2,0.5-3c1.6,0.8,2.7,2,4.5,2.7c0.3,0.4,0.2,1.2,0.7,1.4c0.8-0.2,2.2-0.6,2.6,0.3c-0.1,0.5-0.1,1,0,1.3
		c0.3,0.2,0.7,0.3,1.1,0.5c0.2,1.2,0.6,2.3,1.1,3.3c0.1,0.3,0.4,0,0.6,0.2c0.7,2.6,1,5.4,1.5,8.1c0,0.8-0.3,1.2-0.5,1.8
		c-0.1,1.6-0.1,3-0.1,4.5c0.3,0.5,0.8,0.8,1.1,1.2c0.1,0,0.3,0,0.4,0c0.2-0.1,0.3-0.2,0.5-0.3c0.1,0.3,0.5,0.4,0.9,0.3
		c0,0,0,0,0.1,0c0.2-0.2,0.4-0.4,0.3-0.7c0.1,0.3,0.5,0.4,0.8,0.3c0,0,0,0,0.1,0c0,0,0,0,0,0c0.3-0.1,0.2-0.7,0.4-1
		c-0.1,0.4,0.3,0.6,0.6,0.5c0.1,0,0.1,0,0.2-0.1c0.4-0.4,0.1-1.4,0.1-2c0-0.3,0.1-0.5,0.1-0.8c0.1-2.3-1.1-4-1.5-6.2
		c-0.3-2.1-0.5-4.3-0.8-6.8c0.2-0.2,0.6-0.2,0.7-0.6c-0.2-1.3-0.6-2.4-0.8-3.7c0.2-0.7,0.6-1.1,0.7-2c0.1-2.2-1.9-2.6-3.8-3.2
		c-0.5-0.4-0.6-1-1.1-1.3c-0.3-0.1-0.7-0.2-1.1-0.2c-0.4-0.4-0.7-0.8-0.9-1.3c-0.5-0.2-0.9-0.5-1.4-0.7c-2.2-2.9-4.9-5.4-7.4-8
		c-1.6-1.3-4.3-1.8-6.4-2.7c-0.8-0.1-1.6-0.2-2.1-0.5c0.2-0.1,0.4-0.2,0.6-0.3c0.1,0,0.2,0,0.3-0.1c1-0.3,1.8-1.6,2.7-2.3l0,0.2
		c0.7-0.4,0.8-1.4,1-2c0.4-0.4,0.4-1.1,0.5-1.6l0.1,0.1c0.4-0.3,0-0.8,0.5-1c0-0.2-0.1-0.5,0-0.8c-0.2-0.3-0.5-0.6-0.6-1
		c0,0,0.1,0,0.1,0c0.1,0,0.1-0.1,0.1-0.1c-0.1-0.5-1.2-1-1.1-1.5c0.1,0.1,0.2,0.3,0.4,0.4c0,0,0,0,0,0c0,0,0,0,0,0c0,0,0,0,0,0
		c0,0,0,0,0,0c0-0.5-0.9-0.8-0.7-1.3l-0.2-0.1c0-0.1,0-0.3-0.2-0.3c0-0.1,0.1-0.2,0-0.3c0,0-0.1,0-0.1,0c0,0-0.1,0-0.1,0.1
		c0,0-0.1,0.1-0.1,0.1c0,0-0.1,0-0.1,0c-0.1-0.2-0.1-0.5-0.5-0.6c0-0.1,0-0.2-0.1-0.3c0,0,0,0,0,0c-0.1,0-0.1,0.1-0.1,0.1
		c0,0.1-0.1,0.1-0.1,0.1c0,0,0,0-0.1,0c-0.6-0.3-0.5-0.7-0.8-1.1c0,0,0,0,0,0c0,0,0,0.1-0.1,0.1c0,0,0,0.1,0,0.1c0,0,0,0,0,0
		c-0.3-0.3-0.1-0.8-0.5-1c-0.1,0.4,0.2,0.9,0,1.3c-0.3-0.2-0.2-0.5-0.5-0.6c-0.2,0.2,0.1,0.3,0,0.5c-0.4-0.3-0.4-0.7-0.8-0.9
		c-0.1,0,0,0.2-0.1,0.3c0,0,0,0,0,0c-0.2-0.1-0.2-0.3-0.4-0.5c0,0,0,0,0,0c0,0,0,0,0,0c0,0,0,0,0,0c0,0-0.1,0-0.1,0
		c-0.3-0.3,0.1-1-0.3-1.2c0,0.4,0,0.7-0.2,1.1c-0.1-0.1-0.2-0.1-0.3-0.1c0-0.2-0.2-0.4-0.4-0.3c0,0,0,0,0,0
		c-0.2-0.1-0.2-0.4-0.5-0.5c-0.1,0.2,0.1,0.2,0,0.4c-0.2,0.2-0.5,0.4-0.7,0.6c-0.1-0.4,0.3-0.8,0-1.1c-0.3,0.5-0.1,1.3-0.7,1.7
		l-0.2-0.1c-0.1,0-0.1,0.2-0.2,0.2c0,0,0,0-0.1,0c0.1-0.3,0.5-0.9,0.3-1.2c-0.2,0.4-0.5,1-0.8,1.3l-0.1-0.2
		c-0.2,0.1-0.5,0.7-0.6,0.9c-0.2-0.3,0.2-0.9,0.1-1.1l0,0l0-0.1c-0.4,0.5-0.4,1.1-0.4,1.6c-0.3,0-0.6-0.2-0.9-0.2l0,0
		c-0.1,0.2,0.1,0.2,0.3,0.3c0,0.2,0.3,0.3,0.3,0.4c0,0-0.1,0-0.1,0.1c0,0-0.1,0-0.1,0c0,0-0.1,0-0.1,0c-0.1,0-0.2,0.1-0.2,0.2
		c0.3,0.1,0.7-0.2,1,0c-0.2,0.2-0.6,0.2-0.7,0.4c0.1,0.1,0.2,0.1,0.3,0.1c0,0,0,0,0,0c0,0,0,0,0,0c0.1,0,0.1,0,0.2,0
		c0,0.1-0.1,0.3-0.1,0.5l0,0c-0.5,0.6-1,1.2-1.5,1.8c0,0.4-0.1,0.9,0,1.2c-0.9,0.6-0.8,2.5-1.3,3.6c-2-1.2-3.1-3.2-4.6-4.8
		c0-0.4,0.3-0.5,0.2-0.9c-2.6-0.2-0.5-4.2-3-4.5c-0.4-1.4-0.7-2.9-2-3.7c-1.3-2.7-1.8-6-3.2-8.6c-0.8-1.8-1.1-4-2-5.7
		c-0.2-0.1-0.6-0.1-0.7-0.2C2.8,11.1,2,10,1,9.1"/>
</g>
</svg>
