<?xml version="1.0" encoding="utf-8"?>
<!-- Generator: Adobe Illustrator 21.1.0, SVG Export Plug-In . SVG Version: 6.00 Build 0)  -->
<svg version="1.1" id="Dancer" xmlns="http://www.w3.org/2000/svg" xmlns:xlink="http://www.w3.org/1999/xlink" x="0px" y="0px"
	 viewBox="0 0 92.8 97.9" style="enable-background:new 0 0 92.8 97.9;" xml:space="preserve">
<style type="text/css">
	.st0{clip-path:url(#SVGID_2_);fill:#7797CA;}
	.st1{clip-path:url(#SVGID_4_);fill:#7797CA;}
	.st2{fill:#7797CA;}
</style>
<g>
	<g>
		<g>
			<defs>
				<path id="SVGID_1_" d="M45.2,44.4c-0.8-0.5,0.5-1.9-0.8-2.2c-0.3,1-0.5,1.6-0.5,2.5c0,0.9,0.6,1.7,0.5,2.5c0,0.9-0.8,2-1.2,2.7
					c-0.3,0.5-0.6,0.9-0.9,1.2L42,57.2c1.8-2.6,2.9-5.9,4.6-8.5c0.8-0.8,1.5-1.5,2.1-2.4c0.7-0.8,1.7-1.2,2.2-2.3
					c-0.1,0-0.2,0-0.3,0.1c-0.8,0.1-1.2,1-1.8,1.3c-0.1-0.9,1-2.1,0.2-2.9c-0.5,0.5-0.4,1.6-1,2.1c-0.1-0.6,0.8-1.2,0.5-2
					c-0.1,0-0.1,0-0.2,0c-0.5,0.1-0.6,1.2-1,1.5c-0.4-0.3,0-0.9,0.1-1.2c0-0.8,0.6-1.4,0.3-2.1C46.2,41.1,46.7,44,45.2,44.4"/>
			</defs>
			<clipPath id="SVGID_2_">
				<use xlink:href="#SVGID_1_"  style="overflow:visible;"/>
			</clipPath>
			<path class="st0" d="M40.6,40.7l11.5,0.6l-0.8,15l-11.6-0.6L40.6,40.7z"/>
		</g>
	</g>
</g>
<g>
	<g>
		<g>
			<g>
				<defs>
					<path id="SVGID_3_" d="M69.6,93.4c0-0.1,0.1-0.1,0.1-0.1C69.7,93.2,69.7,93.3,69.6,93.4L69.6,93.4
						C69.6,93.4,69.6,93.4,69.6,93.4 M75.6,87.8C75.6,87.8,75.6,87.7,75.6,87.8C75.7,87.8,75.6,87.8,75.6,87.8
						C75.6,87.8,75.6,87.8,75.6,87.8C75.6,87.8,75.6,87.8,75.6,87.8 M65.3,89.4L65.3,89.4c0.1,0,0.1,0,0.1,0c0,0,0,0,0.1,0h0.1
						c-0.1,0.1-0.1,0.1-0.1,0.3C65.3,89.6,65.3,89.5,65.3,89.4 M69.4,40.4c-0.2-0.1-0.2-0.3-0.2-0.5l0.1-0.1
						c0.1-0.1,0.3,0.2,0.3,0.4l0,0C69.5,40.3,69.5,40.3,69.4,40.4C69.5,40.4,69.5,40.4,69.4,40.4L69.4,40.4 M67,40
						c0-0.3-0.1-0.6-0.1-0.9c0.3,0.1,0.3,0.5,0.4,1h-0.1C67.2,40,67.1,40,67,40 M67,38.7c0-0.1,0.1-0.2,0.1-0.3
						c0,0.1,0.1,0.1,0.1,0.1c0,0.1-0.1,0.1-0.1,0.1C67.1,38.7,67.1,38.7,67,38.7 M67.8,35.9c0.1,0,0.2,0,0.3,0.1
						c-0.2,0.1-0.5,0.3-0.5,0.6C67.2,36.6,67.5,35.9,67.8,35.9 M80.4,34c0-0.3,0.2-0.4,0.3-0.6c0.1,0.1,0.3,0,0.5,0.1
						c-0.1,0.3-0.5,0.4-0.5,0.8C80.6,34.1,80.4,34,80.4,34 M80.3,32.6c0-0.2,0.2-0.3,0.3-0.5c0.2,0,0.1,0.3,0.2,0.3h0.1
						c-0.1,0.2-0.1,0.3-0.3,0.4C80.5,32.7,80.4,32.7,80.3,32.6 M67.5,34.3L67.5,34.3c0,0.1-0.1,0.2-0.1,0.3
						C67.3,34.4,67.4,34.3,67.5,34.3 M80.4,31C80.4,31,80.5,31,80.4,31c0.1-0.1,0.3,0.1,0.4,0.2c0,0.1-0.1,0.2-0.1,0.3
						C80.6,31.2,80.4,31.1,80.4,31 M68.7,33.5c-0.1-0.1-0.1-0.3-0.1-0.5c0.3,0.1,0.4,0.2,0.5,0.4C69,33.4,68.9,33.4,68.7,33.5
						L68.7,33.5 M68.7,32.3L68.7,32.3L68.7,32.3C68.8,32.3,68.8,32.3,68.7,32.3C68.8,32.3,68.8,32.3,68.7,32.3 M68.8,32.1
						c-0.1,0-0.1-0.1-0.2-0.1c0.1-0.1,0.1-0.1,0.2-0.2c0,0,0,0,0.1,0c0,0.1,0.1,0.1,0.1,0.2l0,0c0,0-0.1,0-0.1,0.1
						C69,32,69,32,68.8,32.1L68.8,32.1 M77.8,27.3c0-0.1,0-0.1,0.1-0.1C77.9,27.2,77.9,27.3,77.8,27.3
						C77.8,27.3,77.8,27.3,77.8,27.3 M76.3,14.4c-0.1,0.5-0.2,1-0.6,1c-0.1,0-0.1,0-0.1,0c-0.4-0.4,0.1-1.3-0.5-1.6
						c-0.5,0.3-0.3,1.3-0.2,1.8c-0.2,0.4-0.3,0.7-0.5,1c0,0.3-0.1,0.6-0.1,1c-1.1,3.1-2.6,6-3.4,9.3c-0.3,0.4-0.3,1-0.4,1.6
						c-0.1,0.5,0,1.1-0.1,1.7l0,0c0,0-0.1,0-0.1,0.1c-0.1,0-0.1,0-0.3,0c-0.1,0-0.2,0-0.3,0c-0.1,0-0.1,0.1-0.2,0.2
						c0,0.2,0.1,0.5,0.1,0.6c0,0,0,0-0.1,0c-0.1,0-0.2-0.1-0.3-0.1c0,0.1,0,0.1,0,0.2c0.2,0.1,0.4,0.2,0.3,0.5
						c-0.1-0.1-0.3-0.1-0.4-0.1c-0.2,0.1-0.4,0.1-0.5,0.3c0.1,0.3,0,0.5,0.1,0.8l0,0c-0.5,0.1-0.3,0.8-0.1,1
						c-0.1,0.2-0.1,0.3-0.3,0.3c-0.1,0-0.3,0-0.4-0.1c-0.6,0.1-0.9,1.1-0.4,1.6c0.1,0,0.1,0.1,0.3,0s0.2-0.2,0.3-0.4H68
						c-0.1,0-0.1,0.1-0.1,0.1c-0.1,0.1-0.1,0.1-0.1,0.1c0,0-0.1,0-0.1,0c-0.2-0.3,0.1-0.8,0.3-1c0.1,0.1,0.3,0.1,0.5,0.1
						c0.1-0.1,0.3-0.1,0.4-0.1c0.1,0.1,0.1,0.4,0.1,0.7c-0.3,0.1-0.6,0.2-0.8,0.5c-0.1,0-0.1,0-0.1,0c-0.3,0.1-0.5,0.3-0.7,0.8
						c0.1,0.4,0.3,0.7,0.5,1c0,0.1-0.1,0.1-0.2,0.2c-0.1,0-0.2,0-0.3,0c-0.1-0.2,0-0.5-0.2-0.7l0,0c0,0,0,0-0.1,0.1V37l0,0
						c-0.1,0.1,0.1,0.4-0.1,0.5c0.1,0.2,0.3,0.3,0.2,0.5c0.1,0.1,0.2,0.1,0.3,0.1c0.2-0.1,0.3-0.2,0.5-0.3c0.1,0.1,0.1,0.1,0.1,0.3
						c-0.1,0.1-0.1,0.1-0.2,0.1c-0.1,0-0.1,0-0.2,0.1c-0.1,0-0.1,0-0.2,0.1c-0.1,0-0.1,0-0.1,0.1c-0.2,0.2-0.3,0.5-0.5,0.8
						c0,0.3-0.2,0.5-0.2,0.7c0.1,0.3,0.3,0.5,0.4,0.8c0.1,0,0.3,0,0.4,0c0.2-0.1,0.4-0.1,0.5-0.3c0.1,0.1,0.3,0.2,0.2,0.5
						c-0.3,0.2-0.6,0.3-0.8,0.7c0,0.3,0,0.6,0.3,0.6c0.1-0.1-0.1-0.3-0.1-0.4c0.1-0.4,0.5-0.4,0.8-0.5c0.1-0.1,0.1-0.2,0.1-0.3
						c0.2,0.3-0.4,0.5-0.4,0.8c-0.1,0.4,0.1,0.7,0.3,0.9c0,0,0.1,0,0.1-0.1c0.1,0,0.1,0,0.1,0c0.1,0,0.1,0,0.1,0
						c0.1,0,0.2-0.1,0.1-0.3c-0.1,0-0.1,0-0.1,0h-0.1h-0.1c-0.1,0-0.1,0-0.1-0.1c0,0,0-0.1,0-0.2c0.1-0.2,0.3-0.3,0.5-0.5
						c0-0.1,0-0.2-0.1-0.2c0.1-0.3-0.1-0.5,0-0.8c0.3,0.1,0.2,0.4,0.4,0.5c-0.1,0.5,0,1,0.5,1h0.1c-0.1-0.2-0.3-0.3-0.3-0.5
						c0-0.1,0.1-0.2,0.2-0.2c0.1,0,0.1,0,0.1,0c0.1,0,0.1,0,0.1,0H70c0-0.1-0.1-0.1-0.2-0.2c0.1-0.2,0.1-0.3,0.2-0.5
						c0.1,0,0.1,0.1,0.2,0.1c0.1,0.1,0.1,0.2,0.1,0.3c-0.1,0.3-0.4,0.5-0.5,0.9c0.1,0.3,0.1,0.5,0.3,0.7l0,0l0,0l0,0h0.1
						c-0.1-0.2-0.2-0.5,0-0.8c0.1-0.1,0.2-0.2,0.3-0.2l0.1,0.1c0.3,0.5,0.6,0.8,0.8,1.2c0.2,3.4,2.1,5.7,3.5,8.4
						c0.5,0.5,1.2,0.9,1.4,1.6c-0.3,1-0.9,1.5-1.2,2.5c-0.4,1.4-0.9,2.5-1.2,4.1c0.1,4,1.4,7.2,2.1,10.9c-0.5,0.7-0.9,1.4-1.3,2.2
						c0.1,0.8-0.5,1.5-0.6,2.5c-1.4,0.8-2.5,2.2-3.6,3.5c-1.6,3.5-2.7,7.7-5,10.4c0,0.3,0,0.4,0.1,0.6c-0.6,0.4-0.6,1.3-0.7,2l0,0
						c-0.2,0.1-0.3,0.2-0.3,0.5c0,0.5,0.4,0.8,0.9,1.1c0.1,0.3,0.1,0.6,0.1,0.9c0.8,0.6,2.7,0.9,3.8,0.7c0.1-0.1,0.3-0.1,0.3-0.1
						c0.1-0.3,0.2-0.7,0.1-1c-0.3-0.4-0.9-0.7-1.2-1.1c-0.1-0.9-0.7-1.5-0.8-2.4c0.1-0.3,0.3-0.8,0.3-1.2c2.5-3.9,6.1-6.3,8.3-10.4
						c0.1,2.9,0.5,5.5,0.1,8.7c-0.1,0.3-0.4,0.5-0.4,0.8c-0.1,0-0.1,0-0.2,0c-0.3,0.1-0.4,0.2-0.6,0.3c-0.1,0.6-0.8,1-0.5,1.7
						c-0.1,0-0.1,0-0.1,0c-0.2,0.1-0.3,0.3-0.3,0.5c0.1,0.5,0.5,1,1,1.4c0.1,0.3,0.1,0.6,0.3,0.9c1.3,0.9,3.4,1.7,5.5,1.9
						c0.1-0.3-0.1-0.5-0.2-0.7c0.5-0.4,0-1.2-0.2-1.6c-0.9-0.2-0.9-0.8-1.1-1.4c0.4-0.5,0-1.2-0.3-1.5c-0.1-0.5,0-1,0-1.4
						c0.1-0.4-0.1-0.9,0-1.4c0.1-0.8,0.3-1.7,0.6-2.5c0.8-2.8,1.7-5.3,2.4-8c0-0.1,0-0.1,0.1-0.1h0.1h0.1c0.1,0,0.1-0.1,0.1-0.1
						c2.1-5.1,5.3-9,6.8-15c0.1-0.4,0.1-0.8,0.2-1.2c0-2.8-0.8-5.1-1.8-7.3c-0.5-1.2-1.3-2-2-3c-0.6-1.1-0.8-2.3-1-3.7
						c0.1-0.5,0.1-1.1,0.3-1.6c0.1-1.4-1-2.1-1.8-3.1c0-0.4-0.2-0.8-0.3-1.2c0.3-0.5,0.6-1,0.9-1.6c1.3-1,1.7-2.8,2.2-4.4
						c0.3-1,1-2.1,1.5-2.8c0.2-0.3,0.6-0.5,0.8-0.8c1.8-2.3,2.8-5.1,4.2-7.9c0-0.5-0.1-0.8,0.1-1.4c-0.7-1-1.2-2-2-2.7
						c-0.3-0.6-0.4-1.4-1.1-1.8c-0.1-0.3-0.1-0.8-0.4-1c-0.2,0-0.4-0.1-0.5-0.1l0,0c0.1,0.5,0.2,1.1,0.3,1.8
						c-0.8-0.3-0.8-1.6-1.9-1.5c1.1,2,2.3,4,3.5,5.9c-1.4,2.1-3.2,3.9-4.7,5.9c-0.9,0.9-1.1,2.6-1.8,3.8c-0.7,1.2-1.3,2.3-2,3.5
						c-0.5,0.6-1.2,1.2-1.6,1.6c0.1-0.2,0.2-0.3,0.3-0.7c-0.1-0.1-0.1-0.2-0.3-0.2c0.1-0.1,0.1-0.3,0.1-0.5c0.2,0,0.3,0.1,0.4,0.3
						c0,0.2-0.1,0.3-0.2,0.5l0,0c0.1,0,0.1,0.1,0.1,0.1c0.2-0.1,0.3-0.7,0.1-0.9c0.1,0.1,0.3,0.1,0.5,0.1c0.1-0.1,0.3-0.1,0.3-0.3
						c-0.1,0-0.1,0-0.1,0h-0.1h-0.1c-0.1,0-0.1,0-0.3-0.1c0-0.3,0.3-0.4,0.5-0.5c0-0.3-0.4-0.3-0.5-0.5c0.1-0.3,0.4-0.3,0.5-0.6
						c-0.1-0.1-0.2-0.2-0.3-0.3c-0.1-0.1,0-0.3-0.1-0.3c0-0.1,0.1-0.2,0-0.3c-0.1-0.3-0.3-0.5-0.5-0.8c-0.4-0.1-0.5-0.3-0.5-0.6
						c0-0.1,0-0.2,0-0.3c0-0.1-0.1-0.1-0.1-0.2c0.2-0.5,0.2-1-0.3-1c-0.1-0.3-0.1-0.5-0.5-0.7c-0.1-0.2-0.1-0.4-0.3-0.5
						c-0.1,0-0.2,0-0.3,0c-0.5-0.1-0.5-0.7-1.1-0.8c-0.1,0-0.1,0-0.1,0c-0.1,0-0.1,0-0.1,0.1c-0.1,0-0.1-0.1-0.1-0.1
						C77,27,76.9,27,76.7,27c-0.1-0.1-0.2-0.3-0.3-0.3c-0.2,0-0.3,0.1-0.5,0c-0.1-0.1-0.1-0.1-0.2-0.1c-0.1,0-0.1,0.1-0.1,0.1
						s-0.1-0.1-0.2,0c0,0,0,0-0.1,0l0,0l-0.1,0.1c0,0.1,0,0.1-0.1,0.1l0,0l0,0c0,0-0.1,0-0.1,0s-0.1,0-0.2,0c0,0,0,0-0.1,0
						c-0.1,0-0.1,0.2-0.2,0.3c-0.1,0-0.1,0-0.2,0.1c0.9-2.4,1.2-5.5,2.1-7.9c1-0.4,2-0.7,2.9-1.3c0.5-0.8,1.4-1.3,1.8-2.2
						c-0.3-0.1-0.5-0.3-0.9-0.4c-0.7,0.3-1.1,1-1.9,1.1c-0.1,0-0.1,0-0.1,0c0.3-0.5,1-1,0.9-1.6c-0.1-0.1-0.3-0.1-0.4-0.1
						c-0.3,0.1-0.5,0.4-0.7,0.6c-0.2,0.3-0.5,0.5-0.9,0.6c-0.1,0-0.1,0.1-0.3,0c0.1-0.6,0.6-1.6,0.3-2c0,0,0,0-0.1,0
						C76.5,13.4,76.4,13.9,76.3,14.4"/>
				</defs>
				<clipPath id="SVGID_4_">
					<use xlink:href="#SVGID_3_"  style="overflow:visible;"/>
				</clipPath>
				<path class="st1" d="M44.7-29.5l79.9,7.4l-14.9,159.5L29.8,130L44.7-29.5z"/>
			</g>
		</g>
	</g>
	<g>
		<g>
			<path class="st2" d="M48.2,76.9v-0.1c0-0.2-0.2-0.3-0.2-0.5c0.1-3.5,2-6.8,0.7-10c0.8-1.8,0.1-4.6,0.5-6.8l0.1-0.1
				c0.1,0.1,0.2,0.1,0.3,0.1c0.8,3.5-0.5,7.9,0,11.5c-0.8,1.5-1.4,3.5-1.4,5.7L48.2,76.9"/>
			<polyline class="st2" points="46.7,36.4 46.7,36.4 46.7,36.4 46.7,36.4 			"/>
			<path class="st2" d="M46.2,36.9c0-0.3-0.2-0.3-0.2-0.5C46.2,36.4,46.3,36.7,46.2,36.9"/>
			<path class="st2" d="M46,36.8c-0.2-0.1-0.2-0.3-0.3-0.5c-0.1-0.1-0.2-0.1-0.3-0.3c0-0.1-0.1-0.3-0.1-0.4
				C45.4,36.1,45.8,36.3,46,36.8"/>
			<path class="st2" d="M45,35.6c-0.1-0.2-0.1-0.5-0.1-0.7c0.1-0.1,0.2-0.2,0.3-0.3C45.1,34.9,45,35.3,45,35.6"/>
			<path class="st2" d="M46.6,36c-0.3-0.1-0.5-0.2-0.7-0.5c-0.3-0.8-0.1-1.4,0.3-2C46.4,34.3,46.4,35.2,46.6,36"/>
			<path class="st2" d="M58.7,27.7c-0.1-0.1-0.1-0.2-0.1-0.2L58.7,27.7"/>
			<path class="st2" d="M58.6,27.3C58.5,27.3,58.5,27.3,58.6,27.3C58.5,27.3,58.5,27.3,58.6,27.3"/>
			<path class="st2" d="M58.3,29.5c-0.2-0.1-0.3-0.3-0.4-0.3c0-0.1,0.1-0.1,0.1-0.1c-0.2-0.4-0.5-0.8-0.8-1.1
				c0.1-0.2,0.2-0.4,0.3-0.5C57.8,27.9,58.2,28.6,58.3,29.5"/>
			<path class="st2" d="M56.3,22c-0.1-0.3-0.1-0.5-0.2-0.8v-0.1c0.1,0.2,0.2,0.4,0.3,0.6C56.4,21.8,56.3,21.9,56.3,22"/>
			<path class="st2" d="M56.1,22c-0.1-0.3-0.3-0.8-0.3-1.2C55.9,21.2,56.1,21.7,56.1,22"/>
			<path class="st2" d="M45.3,24.3c-0.1-0.1-0.3-0.2-0.5-0.3h0.1c0.1-0.1,0.3-0.2,0.5-0.4C45.3,23.9,45.3,24.1,45.3,24.3"/>
			<polyline class="st2" points="45.2,23.2 45.3,23.2 45.2,23.2 			"/>
			<path class="st2" d="M44.8,23c0.2-0.1,0.4-0.2,0.5-0.3c-0.1,0.2-0.2,0.3-0.3,0.5c-0.1,0.1-0.4,0.2-0.4,0.4c0.1,0,0.1,0,0.1,0h0.1
				h0.1h0.1c-0.1,0.1-0.2,0.3-0.3,0.3l-0.1-0.1c-0.1-0.1-0.1-0.1-0.3-0.2c0.1-0.2,0.1-0.4,0.2-0.6C44.5,23.1,44.7,23.1,44.8,23"/>
			<path class="st2" d="M43.8,23c0.1,0,0.1,0,0.1-0.1c0.1,0.1,0.1,0.3,0.1,0.4C43.9,23.2,43.8,23.2,43.8,23
				C43.8,23.1,43.8,23.1,43.8,23"/>
			<path class="st2" d="M44.6,22L44.6,22c0-0.1,0.1-0.2,0.1-0.2C44.7,21.9,44.7,22,44.6,22"/>
			<path class="st2" d="M44.6,22.7c0.3-0.4,0.5-0.8,0.8-1.2C45.3,22,45.1,22.5,44.6,22.7"/>
			<path class="st2" d="M44.9,21.6L44.9,21.6C44.9,21.5,44.9,21.5,44.9,21.6C44.9,21.5,44.9,21.5,44.9,21.6L44.9,21.6"/>
			<path class="st2" d="M44.4,22.6c0.3-0.4,0.6-0.7,0.8-1.2c0.1-0.1,0.2-0.3,0.3-0.3h0.1C45.1,21.6,44.9,22.2,44.4,22.6"/>
			<path class="st2" d="M30.3,6.7c-0.2-0.1-0.8-0.3-0.7-0.3l0,0C29.8,6.4,30.3,6.6,30.3,6.7"/>
			<path class="st2" d="M31.3,3.3C31,4.2,32,5,32.3,6C32.2,6,32.2,6,32.1,6c-0.1,0.1-0.3,0.1-0.4,0.1c-0.1,0-0.3,0.1-0.4,0.1
				c-0.1,0-0.1,0.1-0.2,0.1c-0.3-0.4-1.2-0.5-1.8-0.5c0.1,0.1,0,0.5,0.2,0.5l0,0C29.2,6.3,29,6,28.6,6c0,0.9,1,0.8,1.4,1.3
				c0.4,0.3,0.8,0.8,1.2,1.2c0.1,0.1,0.1,0.2,0.2,0.3c0.3,0.7,0.8,1.2,1.3,1.8c0.2,0,0.3,0.1,0.5,0.2c1.8,2.8,2.6,6.6,4.8,9.1
				c0.1,0.1,0.1,0.2,0.2,0.3c0.6,1.5,1.8,2.5,2.3,4c0.5,1.4,1.6,2.3,2.5,3.3c-0.1,0.1-0.3,0.1-0.3,0.3c-0.1,0-0.1,0-0.1,0
				c-0.2,0.1-0.4,0.1-0.5,0.3c0.1,0.1,0.2,0.1,0.3,0c0.1,0,0.1,0,0.1-0.1c0.1,0,0.1-0.1,0.1-0.1l0,0c0.2-0.1,0.5-0.1,0.7-0.1h0.1
				c0.1,0.1,0.1,0.2,0.2,0.3c-0.1,0-0.2,0.1-0.3,0.1c-0.3,0.3-0.5,1-0.3,1.6c0.1-0.1,0-0.5,0.1-0.7c0.2-0.2,0.3-0.5,0.5-0.7
				c0,0.2-0.3,0.3-0.2,0.7c0.2-0.1,0.3-0.3,0.5-0.4c0.1,0.1,0.1,0.2,0.1,0.3c-0.1,0.3-0.2,0.6-0.1,1.1c-0.1,0.3-0.4,0.3-0.5,0.7
				c0.1,0,0.1,0,0.1,0c0.1,0,0.2-0.1,0.3-0.1c0.1,0.2,0.1,0.5,0.1,0.6c-0.1,0.4-0.5,0.7-0.5,1.1c0.1,0,0.1,0,0.1,0
				c0.1,0,0.1-0.1,0.2-0.1c0.1,0.1,0,0.5,0.1,0.7c-0.5,0.7-1,1.7-0.7,3c0.1,0.2,0.1,0.5,0.3,0.6c0.1,0,0.1-0.1,0.1-0.3
				c0.1,0,0.1,0.2,0.3,0.2c0-0.3-0.3-0.5-0.1-0.9c0.1,0.2,0.2,0.5,0.4,0.6c0.3,1-0.1,1.8-0.7,2.2c-0.1,0-0.1-0.1-0.3-0.1
				c-0.1,0.1,0.1,0.1,0.2,0.2c0,0.1-0.1,0.1-0.1,0.2c0.1,0.1,0.1,0.1,0.2,0c0.5-0.4,1-0.9,1.2-1.6c0-0.1,0-0.2,0-0.3
				c-0.1-0.8-0.3-1.1-0.5-1.7c0.1-0.1,0.3-0.1,0.5-0.2c0.1,0.1,0.1,0.2,0.1,0.3c0.1,0.5,0.3,0.9,0.6,1.3c0.1,0.3,0.2,0.6,0.1,0.9
				c-0.1,0.2-0.1,0.4-0.3,0.6l0,0c0,0-0.1,0-0.1,0.1h-0.1l0,0l0,0c0,0,0,0-0.1,0h-0.1c0,0-0.1,0-0.1,0.1l0,0c0.1,0.1,0.2,0.1,0.3,0
				h0.1H45h0.1c0.5-0.4,0.9-0.8,1.2-1.4c0-0.2-0.1-0.3-0.1-0.4c0.1,0,0.2,0.1,0.3,0.1c0.1,0.2,0.1,0.5,0.2,0.8
				c0,0.2,0.1,0.4,0.2,0.5c0.4,0.6,0.9,1.2,1,1.9c0,0.1,0,0.3,0,0.3c-0.1,0.7,0.1,1.2-0.1,1.6c-0.1,0.5-0.6,0.8-0.8,1.2
				c-0.1,0.1-0.2,0.3-0.3,0.3c-1.4,1-2.7,2-3.4,3.7c-1.1,2.3-0.9,5.4-1.1,8.7c0,0.4,0.2,0.9,0.6,1l0,0c0.3,0.1,0.6,0.4,0.7,0.8
				c0.5,2.5,1,5.1,1.4,7.8c0,0.2,0,0.4-0.1,0.6c-1.4,3.4,0.7,6.8,1.2,10c-0.1,0.3-0.4,0.4-0.5,0.7c-0.5,0.8-0.4,1.8-0.5,3.1
				c-0.1,1.4-0.5,2.9-0.1,4c0.1,0.1,0.1,0.2,0.1,0.3c0.4,0.5,1,1,1.9,1.2c0.5,0.1,1,0.6,0.9,1.2c0,0.1,0,0.2,0,0.3
				c0.1,0.3,0.1,0.5-0.1,0.8c-0.3,0.5-0.3,1.1-0.3,1.8c0,0.1,0,0.2-0.1,0.3c-0.3,1-0.8,1.8-0.9,2.9c-0.1,0.5,0.3,0.9,0.7,1.1
				c0.9,0.3,2,0.3,3.1,0c0.6-0.1,1.2-0.4,1.4-0.8c0-0.1,0-0.1,0.1-0.1l0,0c-0.1-1.2-0.5-2-0.8-2.9c0-0.1-0.1-0.2-0.1-0.3
				c0-0.8-0.3-1.5-0.8-2.1c0.1-0.3,0.2-0.4,0.2-0.8c-0.5-1.4,0.2-2.5,0.6-3.8c0.3-0.9,0.5-1.8,0.8-2.6c0.9-2.7,1.9-5.3,1.2-8.7
				c0-0.1,0-0.3,0-0.5c0.9-3.6,1.8-7.1,2.7-10.6h0.1c0.2-0.1,0.3-0.3,0.5-0.3c0.3-0.1,0.2,0.3,0.4,0.2h0.1c0.5-0.3,0.3-1,0.3-1.5
				c0.1-1.5,0-2.7-0.1-4c-0.1-0.8-0.3-1.5-0.3-2.2c0-1.2,0.9-2.3,0.8-3.5c0-0.1,0.1-0.1,0.1-0.1h0.1h0.1c0.1,0,0.1-0.1,0.1-0.1
				c0-0.5,0.1-0.8,0.2-1c0.2-1.3,0-2.5-0.1-3.7c-0.2-2.2,0.1-4.5,0-6.9c0.1-0.5,0.4-0.8,0.5-1.3c0.2-1.8-0.8-3-1.5-4.2v-0.1
				c0.1-0.3,0.2-0.7,0.3-1.1c0-0.1,0-0.1,0-0.2c0-0.3-0.1-0.4-0.1-0.7c-0.1-0.2-0.2-0.5-0.1-0.7c0.6,0.5,0.9,1.4,1.8,1.5l0,0
				c0.1,0,0-0.1,0.1-0.1c0.3,0,0.3,0.1,0.7,0V30l0,0v0.1V30c-0.1,0-0.1,0-0.1,0l0,0c-0.1-0.1-0.2,0-0.3-0.1c-0.2,0-0.3-0.1-0.5-0.1
				c-0.1-1-0.4-2.3-1-3.1v-0.1c0.4,0.2,0.7,0.7,1,1.2c0.1,0,0.1,0.1,0.2,0.1v-0.1c0,0,0.1,0.1,0.1,0c0-0.2-0.1-0.3-0.2-0.5
				c-0.3-0.3-0.6-0.7-0.9-1l0.1-0.1c1.3-1.9,1.9-4.7,2.9-6.9c0.1-0.1,0.1-0.1,0.1-0.2c0.3-0.3,0.5-0.7,0.8-1.1
				c0.1-0.1,0.1-0.3,0.1-0.5l0.1-5.8c-0.2,0.3-0.4,0.6-0.7,1l-0.1,0.1c-1,1.4-1.9,2.9-2.5,4.8c-0.1,0.1-0.1,0.2-0.1,0.3
				c-0.8,1.1-1.4,2.4-2,3.7v-0.1c-0.1-0.3-0.2-0.6-0.3-0.9c0.2,0.1,0.5,0.3,0.7,0.2h0.1c-0.1-0.1-0.3-0.1-0.5-0.2
				c-0.5-0.3-0.8-1-1.2-1.6c-0.4-0.5-0.8-1-1.4-1.4c0,0,0.1,0,0.1-0.1c0.1,0,0.1,0,0.1,0s0.1,0,0.1,0c0.1,0,0.1-0.1,0.1-0.1
				c0-0.1-0.1-0.1-0.2-0.2c-0.3,0-0.5-0.1-0.7-0.2c-0.1-0.1-0.2-0.2-0.3-0.3c-0.2-0.2-0.5-0.3-0.5-0.6c-0.3-0.2-0.6-0.4-1.1-0.4
				h-0.1c-0.2,0.1-0.3,0.1-0.5,0.3c-0.1,0-0.3-0.1-0.4-0.1h0.1l0,0c-0.5,0-0.9,0-1.2,0.1s-0.6,0.3-0.8,0.5l-0.1,0.3
				c-0.5,0.5-0.9,1.4-1.1,2.3c-0.1,0.1-0.1,0.3-0.1,0.4c-0.1,0.1-0.3,0.3-0.3,0.5c-0.1,0.1-0.1,0.2-0.2,0.3
				c-0.2,0.2-0.5,0.3-0.8,0.5c-0.1,0.1-0.1,0.1-0.1,0.1l-0.7,0.7c-0.1,0.1-0.1,0.1-0.1,0.2c-0.2,0.3-0.4,0.5-0.5,0.9
				c-0.1,0.1-0.3,0.3-0.5,0.4c-0.1,0.1-0.2,0.1-0.3,0.1l0,0c-0.7-0.8-1.2-1.6-1.9-2.3c-1-1-1-2.9-1.8-4c-1.6-2.2-3.3-4.2-4.6-6.7
				c-0.1-0.2-0.1-0.5-0.1-0.7c0.1-0.3,0-0.5,0-0.8C35.2,8.4,35,8.2,34.8,8c-0.1-0.1-0.1-0.1-0.2-0.1c-0.2-0.1-0.3-0.3-0.4-0.4
				c-0.4-0.8-1-1.5-1.4-2.3c-0.1-0.1-0.1-0.3-0.3-0.4C32.1,4.2,32,3.5,31.3,3.3"/>
		</g>
		<g>
			<path class="st2" d="M19.7,31.1c0.1-0.1,0.3-0.3,0.4-0.4l0.1,0.1C20.1,31,19.9,31,19.7,31.1 M17.3,21.9c-0.2-0.1-0.3,0-0.5-0.1
				c0.1-0.1,0.2-0.2,0.3-0.3C17.2,21.6,17.3,21.7,17.3,21.9 M1.5,11.7c-0.2,0.1-0.4-0.2-0.5-0.3C1,11.4,1.6,11.4,1.5,11.7L1.5,11.7
				 M2,11.2L2,11.2C2,11.1,2,11.1,2,11.2C2,11.1,2,11.1,2,11.2L2,11.2 M2,11C1.9,11,1.9,11,2,11c0-0.1,0-0.1,0-0.1
				C2,10.9,2,10.9,2,11L2,11 M1.3,10.8c-0.2,0,0-0.3-0.1-0.5C1.3,10.3,1.4,10.6,1.3,10.8 M0.6,7.1C0.2,8,1.4,8.6,1.4,9.3
				c-0.1-0.1-0.3-0.1-0.3,0C1,9.4,0.8,9.5,0.8,9.5c-0.1,0.5-0.3,1-0.5,1.4c0,0.2-0.3,0.1-0.3,0.4c0.1,0.7,0.6,1,1,1.4
				c0.1,0.5,0.3,0.9,0.6,1.2C2.3,14.1,2.8,14.4,3,15c0.4,1.4,0.3,3.1,0.4,4.6c-0.8,0.5-0.1,2-0.1,2.9c-0.3,0.4-0.7,0.5-0.8,1
				c-0.3,1.3,1.8,1.4,1.8,2.6c-0.1,0.3-0.1,0.7-0.1,1c0.2,0.5,0.9,0.6,1.2,1c0.1,0.1,0.1,0.3,0.1,0.5c1.4,1.6,2.2,3.6,3.3,5.4
				c0,0.4,0.1,0.8,0.1,1.2c-0.1,0.3-0.2,0.5-0.3,0.8c-0.3,4.8,1.4,7.9,2.9,11c1.2,2.8,2,5.9,3.4,8.5c-2.1,0.7-4.4,1.2-4.8,3.8
				c0,1,0.1,1.8,0.5,2.4c-1,0.9-2,1.6-2.8,2.7c-1.2,1-2.7,1.6-3.3,3.2c-0.1,0.5-0.1,1.2-0.1,1.7c0.4,1.6,1.4,2.6,2.6,3.5
				c1.2,1.5,2,3.2,2.7,5.1c0.7,1.8,1.4,3.8,2.5,5.3c0.1,0.2,0.6,0.1,0.8,0.2c0.1,0.3-0.3,1,0,1.1l0,0c0.2-0.1,0-1,0.3-1.2
				c0.1,0.5-0.3,1.2,0.1,1.5c-0.1,0.3-0.3,0.5-0.2,1c-0.2,0.3-0.5,0.6-0.3,1.1c-0.4,0.8-1.3,1.2-1.5,2.5c0.1,0.5,0.5,0.7,1,1
				c0.1,0,0.1,0,0.1,0c1-0.3,1.2-1.6,2.1-1.9c0.1-0.2,0.1-0.3,0.1-0.5c1.8-2.1,3.5-4.2,5.2-6.4c-0.6-0.8-1.7-1.1-2.5-1.6
				c0-0.3,0.3-0.3,0.3-0.5c-0.1-0.2-0.4-0.3-0.5-0.5c-1.7-2.9-3.1-6.1-5.1-8.7c-0.3-0.3-0.8-0.5-1-1c0.1,0,0.3-0.1,0.4-0.1
				c1-0.3,2-0.7,2.9-1.2c1-0.4,1.8-0.8,2.9-1.2h0.1c2.7,2.4,4.1,5.8,7,8.1c0.2,0,0.3,0.1,0.5,0.1c0.3,0,0.5,0.1,0.8,0.1
				c-0.1,0.2,0.1,0.3,0.2,0.4c0.5,1.6,0.1,4,1,5.5c0.5,0.5,1.6,0.5,2.3,0.3c0.1,0,0.1-0.1,0.2-0.1c0.7-0.5,1.5-1,1.7-2.2
				c0.3-2-0.3-3.8-0.8-5.4c-0.5-1.6,0.1-4-1.5-4.8c-0.1-0.1-0.5-0.1-0.7-0.1c-1.4-1.4-2.9-2.9-4.2-4.5c0.8-0.5,1.4-1.3,2-2
				c0.1-0.1,0.3-0.1,0.5-0.1c2.4-0.7,4.2-2.3,4.1-5.6c0.3-0.2,0.7-0.3,0.8-0.8c-0.3-1.4-0.8-2.7-2.3-3.1c-1.4-2.5-4-4.2-5.1-7.1
				c0.3-0.4,0.7-0.6,1-1.1c0.1-0.6,0.3-1.4,0.3-2c1.1,0.5,1.8,1.4,3.1,1.8c0.2,0.3,0.1,0.8,0.5,1c0.5-0.1,1.5-0.4,1.8,0.2
				c-0.1,0.3-0.1,0.7,0,0.9c0.2,0.1,0.5,0.2,0.8,0.3c0.1,0.8,0.4,1.6,0.8,2.3c0.1,0.2,0.3,0,0.4,0.1c0.5,1.8,0.7,3.7,1,5.5
				c0,0.5-0.2,0.8-0.3,1.2c-0.1,1.1-0.1,2-0.1,3.1c0.2,0.3,0.5,0.5,0.8,0.8c0.1,0,0.2,0,0.3,0c0.1-0.1,0.2-0.1,0.3-0.2
				c0.1,0.2,0.3,0.3,0.6,0.2c0,0,0,0,0.1,0c0.1-0.1,0.3-0.3,0.2-0.5c0.1,0.2,0.3,0.3,0.5,0.2c0,0,0,0,0.1,0l0,0
				c0.2-0.1,0.1-0.5,0.3-0.7c-0.1,0.3,0.2,0.4,0.4,0.3c0.1,0,0.1,0,0.1-0.1c0.3-0.3,0.1-1,0.1-1.4c0-0.2,0.1-0.3,0.1-0.5
				c0.1-1.6-0.8-2.7-1-4.2c-0.2-1.4-0.3-2.9-0.5-4.6c0.1-0.1,0.4-0.1,0.5-0.4c-0.1-0.9-0.4-1.6-0.5-2.5c0.1-0.5,0.4-0.8,0.5-1.4
				c0.1-1.5-1.3-1.8-2.6-2.2c-0.3-0.3-0.4-0.7-0.8-0.9c-0.2-0.1-0.5-0.1-0.8-0.1c-0.3-0.3-0.5-0.5-0.6-0.9c-0.3-0.1-0.6-0.3-1-0.5
				c-1.5-2-3.3-3.7-5.1-5.5c-1.1-0.9-2.9-1.2-4.4-1.8c-0.5-0.1-1.1-0.1-1.4-0.3c0.1-0.1,0.3-0.1,0.4-0.2c0.1,0,0.1,0,0.2-0.1
				c0.7-0.2,1.2-1.1,1.8-1.6v0.1c0.5-0.3,0.5-1,0.7-1.4c0.3-0.3,0.3-0.8,0.3-1.1l0.1,0.1c0.3-0.2,0-0.5,0.3-0.7c0-0.1-0.1-0.3,0-0.5
				c-0.1-0.2-0.3-0.4-0.4-0.7h0.1c0.1,0,0.1-0.1,0.1-0.1c-0.1-0.3-0.8-0.7-0.8-1c0.1,0.1,0.1,0.2,0.3,0.3l0,0l0,0l0,0l0,0
				c0-0.3-0.6-0.5-0.5-0.9l-0.1-0.1c0-0.1,0-0.2-0.1-0.2c0-0.1,0.1-0.1,0-0.2h-0.1c0,0-0.1,0-0.1,0.1l-0.1,0.1h-0.1
				C21.3,23.2,21.3,23,21,23c0-0.1,0-0.1-0.1-0.2l0,0c-0.1,0-0.1,0.1-0.1,0.1c0,0.1-0.1,0.1-0.1,0.1s0,0-0.1,0
				c-0.4-0.2-0.3-0.5-0.5-0.8l0,0c0,0,0,0.1-0.1,0.1v0.1l0,0c-0.2-0.2-0.1-0.5-0.3-0.7c-0.1,0.3,0.1,0.6,0,0.9
				c-0.2-0.1-0.1-0.3-0.3-0.4c-0.1,0.1,0.1,0.2,0,0.3c-0.3-0.2-0.3-0.5-0.5-0.6c-0.1,0,0,0.1-0.1,0.2l0,0c-0.1-0.1-0.1-0.2-0.3-0.3
				l0,0l0,0l0,0h-0.1c-0.2-0.2,0.1-0.7-0.2-0.8c0,0.3,0,0.5-0.1,0.8c-0.1-0.1-0.1-0.1-0.2-0.1c0-0.1-0.1-0.3-0.3-0.2l0,0
				c-0.1-0.1-0.1-0.3-0.3-0.3c-0.1,0.1,0.1,0.1,0,0.3c-0.1,0.1-0.3,0.3-0.5,0.4c-0.1-0.3,0.2-0.5,0-0.8c-0.2,0.3-0.1,0.9-0.5,1.2
				L16.3,22c-0.1,0-0.1,0.1-0.1,0.1c0,0,0,0-0.1,0c0.1-0.2,0.3-0.6,0.2-0.8c-0.1,0.3-0.3,0.7-0.5,0.9l-0.1-0.1
				c-0.1,0.1-0.3,0.5-0.4,0.6c-0.1-0.2,0.1-0.6,0.1-0.8l0,0v-0.1C15,22.2,15,22.6,15,23c-0.2,0-0.4-0.1-0.6-0.1l0,0
				C14.3,23,14.5,23,14.6,23c0,0.1,0.2,0.2,0.2,0.3c0,0-0.1,0-0.1,0.1h-0.1h-0.1c-0.1,0-0.1,0.1-0.1,0.1c0.2,0.1,0.5-0.1,0.7,0
				c-0.1,0.1-0.4,0.1-0.5,0.3c0.1,0.1,0.1,0.1,0.2,0.1l0,0l0,0c0.1,0,0.1,0,0.1,0c0,0.1-0.1,0.2-0.1,0.3l0,0c-0.3,0.4-0.7,0.8-1,1.2
				c0,0.3-0.1,0.6,0,0.8c-0.6,0.4-0.5,1.7-0.9,2.5c-1.4-0.8-2.1-2.2-3.1-3.3c0-0.3,0.2-0.3,0.1-0.6c-1.8-0.1-0.3-2.9-2-3.1
				c-0.3-1-0.5-2-1.4-2.5c-0.9-1.8-1.2-4.1-2.2-5.9c-0.5-1.2-0.8-2.7-1.4-3.9C2.9,9.4,2.7,9.4,2.6,9.3C1.9,8.4,1.3,7.7,0.6,7.1"/>
		</g>
	</g>
</g>
</svg>
